<mxfile host="app.diagrams.net" modified="2024-03-06T02:35:12.132Z" agent="Mozilla/5.0 (Windows NT 10.0; Win64; x64) AppleWebKit/537.36 (KHTML, like Gecko) Chrome/122.0.0.0 Safari/537.36" etag="OFfIsNUvXkmrdX4Em8Tl" version="24.0.1" type="google">
  <diagram id="R2lEEEUBdFMjLlhIrx00" name="Page-1">
    <mxGraphModel grid="1" page="1" gridSize="1" guides="1" tooltips="1" connect="1" arrows="1" fold="1" pageScale="1" pageWidth="5000" pageHeight="5000" background="#FFFFFF" math="0" shadow="1" extFonts="Permanent Marker^https://fonts.googleapis.com/css?family=Permanent+Marker">
      <root>
        <mxCell id="0" />
        <mxCell id="1" parent="0" />
        <UserObject label="" plantUmlData="{&quot;data&quot;:&quot;@startuml\n\nleft to right direction\n\nactor Patient as patient\nactor Doctor as doctor\nactor Pharmacy as pharmacy\nactor System as system\n\npackage \&quot;User Management\&quot; {\n  usecase \&quot;Register\&quot; as register\n  usecase \&quot;Login\&quot; as login\n  usecase \&quot;Logout\&quot; as logout\n}\n\npackage \&quot;Appointment Management\&quot; {\n  usecase \&quot;Search Doctors\&quot; as searchDoctors\n  usecase \&quot;Book Appointment\&quot; as bookAppointment\n  usecase \&quot;Cancel Appointment\&quot; as cancelAppointment\n  usecase \&quot;View Appointments\&quot; as viewAppointments\n}\n\npackage \&quot;Prescription Management\&quot; {\n  usecase \&quot;Request Prescription\&quot; as requestPrescription\n  usecase \&quot;View Prescription\&quot; as viewPrescription\n}\n\npackage \&quot;Medicine Ordering\&quot; {\n  usecase \&quot;Browse Medicines\&quot; as browseMedicines\n  usecase \&quot;Order Medicine\&quot; as orderMedicine\n  usecase \&quot;Track Order\&quot; as trackOrder\n}\n\npatient --&gt; login\npatient --&gt; searchDoctors\npatient --&gt; bookAppointment\npatient --&gt; viewAppointments\npatient --&gt; browseMedicines\npatient --&gt; orderMedicine\npatient --&gt; requestPrescription\n\nlogin --&gt; system : Authenticate\n\nsystem --&gt; register\nsystem --&gt; logout\n\nsearchDoctors --&gt; doctor : Request\nbookAppointment --&gt; doctor : Request\ncancelAppointment --&gt; system : Request\nviewAppointments --&gt; patient : Display\n\nrequestPrescription --&gt; doctor : Request\nviewPrescription --&gt; patient : Display\n\n  pharmacy --&gt; login\n\npharmacy --&gt; register\npharmacy --&gt; logout\nbrowseMedicines --&gt; pharmacy : Request\norderMedicine --&gt; pharmacy : Request\ntrackOrder --&gt; pharmacy : Request\n\n\n\n@enduml\n&quot;,&quot;format&quot;:&quot;svg&quot;}" id="wL2UVFf8Fw0FVH0qUWVH-2">
          <mxCell style="shape=image;noLabel=1;verticalAlign=top;aspect=fixed;imageAspect=0;image=data:image/svg+xml,PD94bWwgdmVyc2lvbj0iMS4wIiBlbmNvZGluZz0idXMtYXNjaWkiIHN0YW5kYWxvbmU9Im5vIj8+PHN2ZyB4bWxucz0iaHR0cDovL3d3dy53My5vcmcvMjAwMC9zdmciIHhtbG5zOnhsaW5rPSJodHRwOi8vd3d3LnczLm9yZy8xOTk5L3hsaW5rIiBjb250ZW50U3R5bGVUeXBlPSJ0ZXh0L2NzcyIgaGVpZ2h0PSI4NDdweCIgcHJlc2VydmVBc3BlY3RSYXRpbz0ibm9uZSIgc3R5bGU9IndpZHRoOjc3OXB4O2hlaWdodDo4NDdweDtiYWNrZ3JvdW5kOiNGRkZGRkY7IiB2ZXJzaW9uPSIxLjEiIHZpZXdCb3g9IjAgMCA3NzkgODQ3IiB3aWR0aD0iNzc5cHgiIHpvb21BbmRQYW49Im1hZ25pZnkiPjxkZWZzLz48Zz48IS0tY2x1c3RlciBVc2VyIE1hbmFnZW1lbnQtLT48ZyBpZD0iY2x1c3Rlcl9Vc2VyIE1hbmFnZW1lbnQiPjxwYXRoIGQ9Ik02NDAuNSwyNjAuNjYgTDc0Ny41LDI2MC42NiBBMy43NSwzLjc1IDAgMCAxIDc1MCwyNjMuMTYgTDc1NywyODEuNjQ0NCBMNzY5LjUsMjgxLjY0NDQgQTIuNSwyLjUgMCAwIDEgNzcyLDI4NC4xNDQ0IEw3NzIsNDU5LjE2IEEyLjUsMi41IDAgMCAxIDc2OS41LDQ2MS42NiBMNjQwLjUsNDYxLjY2IEEyLjUsMi41IDAgMCAxIDYzOCw0NTkuMTYgTDYzOCwyNjMuMTYgQTIuNSwyLjUgMCAwIDEgNjQwLjUsMjYwLjY2ICIgZmlsbD0ibm9uZSIgc3R5bGU9InN0cm9rZTojMDAwMDAwO3N0cm9rZS13aWR0aDoxLjU7Ii8+PGxpbmUgc3R5bGU9InN0cm9rZTojMDAwMDAwO3N0cm9rZS13aWR0aDoxLjU7IiB4MT0iNjM4IiB4Mj0iNzU3IiB5MT0iMjgxLjY0NDQiIHkyPSIyODEuNjQ0NCIvPjx0ZXh0IGZpbGw9IiMwMDAwMDAiIGZvbnQtZmFtaWx5PSJzYW5zLXNlcmlmIiBmb250LXNpemU9IjE0IiBmb250LXdlaWdodD0iYm9sZCIgbGVuZ3RoQWRqdXN0PSJzcGFjaW5nIiB0ZXh0TGVuZ3RoPSIxMDYiIHg9IjY0MiIgeT0iMjc1Ljg5NDQiPlVzZXIgTWFuYWdlbWVudDwvdGV4dD48L2c+PCEtLWNsdXN0ZXIgQXBwb2ludG1lbnQgTWFuYWdlbWVudC0tPjxnIGlkPSJjbHVzdGVyX0FwcG9pbnRtZW50IE1hbmFnZW1lbnQiPjxwYXRoIGQ9Ik0xNTgsMTE3LjY2IEwzMTUsMTE3LjY2IEEzLjc1LDMuNzUgMCAwIDEgMzE3LjUsMTIwLjE2IEwzMjQuNSwxMzguNjQ0NCBMMzQ5LDEzOC42NDQ0IEEyLjUsMi41IDAgMCAxIDM1MS41LDE0MS4xNDQ0IEwzNTEuNSw0MTMuMTYgQTIuNSwyLjUgMCAwIDEgMzQ5LDQxNS42NiBMMTU4LDQxNS42NiBBMi41LDIuNSAwIDAgMSAxNTUuNSw0MTMuMTYgTDE1NS41LDEyMC4xNiBBMi41LDIuNSAwIDAgMSAxNTgsMTE3LjY2ICIgZmlsbD0ibm9uZSIgc3R5bGU9InN0cm9rZTojMDAwMDAwO3N0cm9rZS13aWR0aDoxLjU7Ii8+PGxpbmUgc3R5bGU9InN0cm9rZTojMDAwMDAwO3N0cm9rZS13aWR0aDoxLjU7IiB4MT0iMTU1LjUiIHgyPSIzMjQuNSIgeTE9IjEzOC42NDQ0IiB5Mj0iMTM4LjY0NDQiLz48dGV4dCBmaWxsPSIjMDAwMDAwIiBmb250LWZhbWlseT0ic2Fucy1zZXJpZiIgZm9udC1zaXplPSIxNCIgZm9udC13ZWlnaHQ9ImJvbGQiIGxlbmd0aEFkanVzdD0ic3BhY2luZyIgdGV4dExlbmd0aD0iMTU2IiB4PSIxNTkuNSIgeT0iMTMyLjg5NDQiPkFwcG9pbnRtZW50IE1hbmFnZW1lbnQ8L3RleHQ+PC9nPjwhLS1jbHVzdGVyIFByZXNjcmlwdGlvbiBNYW5hZ2VtZW50LS0+PGcgaWQ9ImNsdXN0ZXJfUHJlc2NyaXB0aW9uIE1hbmFnZW1lbnQiPjxwYXRoIGQ9Ik0xNTIuNSw0MzkuNjYgTDMxNS41LDQzOS42NiBBMy43NSwzLjc1IDAgMCAxIDMxOCw0NDIuMTYgTDMyNSw0NjAuNjQ0NCBMMzU0LjUsNDYwLjY0NDQgQTIuNSwyLjUgMCAwIDEgMzU3LDQ2My4xNDQ0IEwzNTcsNTk3LjE2IEEyLjUsMi41IDAgMCAxIDM1NC41LDU5OS42NiBMMTUyLjUsNTk5LjY2IEEyLjUsMi41IDAgMCAxIDE1MCw1OTcuMTYgTDE1MCw0NDIuMTYgQTIuNSwyLjUgMCAwIDEgMTUyLjUsNDM5LjY2ICIgZmlsbD0ibm9uZSIgc3R5bGU9InN0cm9rZTojMDAwMDAwO3N0cm9rZS13aWR0aDoxLjU7Ii8+PGxpbmUgc3R5bGU9InN0cm9rZTojMDAwMDAwO3N0cm9rZS13aWR0aDoxLjU7IiB4MT0iMTUwIiB4Mj0iMzI1IiB5MT0iNDYwLjY0NDQiIHkyPSI0NjAuNjQ0NCIvPjx0ZXh0IGZpbGw9IiMwMDAwMDAiIGZvbnQtZmFtaWx5PSJzYW5zLXNlcmlmIiBmb250LXNpemU9IjE0IiBmb250LXdlaWdodD0iYm9sZCIgbGVuZ3RoQWRqdXN0PSJzcGFjaW5nIiB0ZXh0TGVuZ3RoPSIxNjIiIHg9IjE1NCIgeT0iNDU0Ljg5NDQiPlByZXNjcmlwdGlvbiBNYW5hZ2VtZW50PC90ZXh0PjwvZz48IS0tY2x1c3RlciBNZWRpY2luZSBPcmRlcmluZy0tPjxnIGlkPSJjbHVzdGVyX01lZGljaW5lIE9yZGVyaW5nIj48cGF0aCBkPSJNMTY0LDYyMy42NiBMMjg0LDYyMy42NiBBMy43NSwzLjc1IDAgMCAxIDI4Ni41LDYyNi4xNiBMMjkzLjUsNjQ0LjY0NDQgTDM0Myw2NDQuNjQ0NCBBMi41LDIuNSAwIDAgMSAzNDUuNSw2NDcuMTQ0NCBMMzQ1LjUsODM4LjE2IEEyLjUsMi41IDAgMCAxIDM0Myw4NDAuNjYgTDE2NCw4NDAuNjYgQTIuNSwyLjUgMCAwIDEgMTYxLjUsODM4LjE2IEwxNjEuNSw2MjYuMTYgQTIuNSwyLjUgMCAwIDEgMTY0LDYyMy42NiAiIGZpbGw9Im5vbmUiIHN0eWxlPSJzdHJva2U6IzAwMDAwMDtzdHJva2Utd2lkdGg6MS41OyIvPjxsaW5lIHN0eWxlPSJzdHJva2U6IzAwMDAwMDtzdHJva2Utd2lkdGg6MS41OyIgeDE9IjE2MS41IiB4Mj0iMjkzLjUiIHkxPSI2NDQuNjQ0NCIgeTI9IjY0NC42NDQ0Ii8+PHRleHQgZmlsbD0iIzAwMDAwMCIgZm9udC1mYW1pbHk9InNhbnMtc2VyaWYiIGZvbnQtc2l6ZT0iMTQiIGZvbnQtd2VpZ2h0PSJib2xkIiBsZW5ndGhBZGp1c3Q9InNwYWNpbmciIHRleHRMZW5ndGg9IjExOSIgeD0iMTY1LjUiIHk9IjYzOC44OTQ0Ij5NZWRpY2luZSBPcmRlcmluZzwvdGV4dD48L2c+PGcgaWQ9ImVsZW1fcmVnaXN0ZXIiPjxlbGxpcHNlIGN4PSI3MDUuMDgzMyIgY3k9IjQzMS43NTU2IiBmaWxsPSIjRjFGMUYxIiByeD0iNTEuMDgzMyIgcnk9IjEzLjU5NTYiIHN0eWxlPSJzdHJva2U6IzE4MTgxODtzdHJva2Utd2lkdGg6MC41OyIvPjx0ZXh0IGZpbGw9IiMwMDAwMDAiIGZvbnQtZmFtaWx5PSJzYW5zLXNlcmlmIiBmb250LXNpemU9IjE0IiBsZW5ndGhBZGp1c3Q9InNwYWNpbmciIHRleHRMZW5ndGg9IjU2IiB4PSI2NzcuMDgzMyIgeT0iNDM1LjQ5NzciPlJlZ2lzdGVyPC90ZXh0PjwvZz48ZyBpZD0iZWxlbV9sb2dpbiI+PGVsbGlwc2UgY3g9IjcwNS4yMzQiIGN5PSIzMDcuNzU1NiIgZmlsbD0iI0YxRjFGMSIgcng9IjM2LjIzNCIgcnk9IjEzLjU5NTYiIHN0eWxlPSJzdHJva2U6IzE4MTgxODtzdHJva2Utd2lkdGg6MC41OyIvPjx0ZXh0IGZpbGw9IiMwMDAwMDAiIGZvbnQtZmFtaWx5PSJzYW5zLXNlcmlmIiBmb250LXNpemU9IjE0IiBsZW5ndGhBZGp1c3Q9InNwYWNpbmciIHRleHRMZW5ndGg9IjM1IiB4PSI2ODcuNzM0IiB5PSIzMTEuNDk3NyI+TG9naW48L3RleHQ+PC9nPjxnIGlkPSJlbGVtX2xvZ291dCI+PGVsbGlwc2UgY3g9IjcwNS4xODM4IiBjeT0iMzY5Ljc1NTYiIGZpbGw9IiNGMUYxRjEiIHJ4PSI0MS4xODM4IiByeT0iMTMuNTk1NiIgc3R5bGU9InN0cm9rZTojMTgxODE4O3N0cm9rZS13aWR0aDowLjU7Ii8+PHRleHQgZmlsbD0iIzAwMDAwMCIgZm9udC1mYW1pbHk9InNhbnMtc2VyaWYiIGZvbnQtc2l6ZT0iMTQiIGxlbmd0aEFkanVzdD0ic3BhY2luZyIgdGV4dExlbmd0aD0iNDIiIHg9IjY4NC4xODM4IiB5PSIzNzMuNDk3NyI+TG9nb3V0PC90ZXh0PjwvZz48ZyBpZD0iZWxlbV9zZWFyY2hEb2N0b3JzIj48ZWxsaXBzZSBjeD0iMjUzLjU0NTYiIGN5PSIyNDAuNDY5MSIgZmlsbD0iI0YxRjFGMSIgcng9IjY5LjU0NTYiIHJ5PSIxNi4zMDkxIiBzdHlsZT0ic3Ryb2tlOiMxODE4MTg7c3Ryb2tlLXdpZHRoOjAuNTsiLz48dGV4dCBmaWxsPSIjMDAwMDAwIiBmb250LWZhbWlseT0ic2Fucy1zZXJpZiIgZm9udC1zaXplPSIxNCIgbGVuZ3RoQWRqdXN0PSJzcGFjaW5nIiB0ZXh0TGVuZ3RoPSI5OCIgeD0iMjA0LjU0NTYiIHk9IjI0NC4yMTEzIj5TZWFyY2ggRG9jdG9yczwvdGV4dD48L2c+PGcgaWQ9ImVsZW1fYm9va0FwcG9pbnRtZW50Ij48ZWxsaXBzZSBjeD0iMjUzLjM2NjgiIGN5PSIzMDkuNzMzNCIgZmlsbD0iI0YxRjFGMSIgcng9Ijc1Ljg2NjgiIHJ5PSIxNy41NzM0IiBzdHlsZT0ic3Ryb2tlOiMxODE4MTg7c3Ryb2tlLXdpZHRoOjAuNTsiLz48dGV4dCBmaWxsPSIjMDAwMDAwIiBmb250LWZhbWlseT0ic2Fucy1zZXJpZiIgZm9udC1zaXplPSIxNCIgbGVuZ3RoQWRqdXN0PSJzcGFjaW5nIiB0ZXh0TGVuZ3RoPSIxMTMiIHg9IjE5Ni44NjY4IiB5PSIzMTMuNDc1NSI+Qm9vayBBcHBvaW50bWVudDwvdGV4dD48L2c+PGcgaWQ9ImVsZW1fY2FuY2VsQXBwb2ludG1lbnQiPjxlbGxpcHNlIGN4PSIyNTMuNDUzIiBjeT0iMTY5LjQ1MDYiIGZpbGw9IiNGMUYxRjEiIHJ4PSI4MS45NTMiIHJ5PSIxOC43OTA2IiBzdHlsZT0ic3Ryb2tlOiMxODE4MTg7c3Ryb2tlLXdpZHRoOjAuNTsiLz48dGV4dCBmaWxsPSIjMDAwMDAwIiBmb250LWZhbWlseT0ic2Fucy1zZXJpZiIgZm9udC1zaXplPSIxNCIgbGVuZ3RoQWRqdXN0PSJzcGFjaW5nIiB0ZXh0TGVuZ3RoPSIxMjciIHg9IjE4OS45NTMiIHk9IjE3My4xOTI4Ij5DYW5jZWwgQXBwb2ludG1lbnQ8L3RleHQ+PC9nPjxnIGlkPSJlbGVtX3ZpZXdBcHBvaW50bWVudHMiPjxlbGxpcHNlIGN4PSIyNTMuMzI1NCIgY3k9IjM4MC40MjUxIiBmaWxsPSIjRjFGMUYxIiByeD0iNzkuMzI1NCIgcnk9IjE4LjI2NTEiIHN0eWxlPSJzdHJva2U6IzE4MTgxODtzdHJva2Utd2lkdGg6MC41OyIvPjx0ZXh0IGZpbGw9IiMwMDAwMDAiIGZvbnQtZmFtaWx5PSJzYW5zLXNlcmlmIiBmb250LXNpemU9IjE0IiBsZW5ndGhBZGp1c3Q9InNwYWNpbmciIHRleHRMZW5ndGg9IjEyMSIgeD0iMTkyLjgyNTQiIHk9IjM4NC4xNjczIj5WaWV3IEFwcG9pbnRtZW50czwvdGV4dD48L2c+PGcgaWQ9ImVsZW1fcmVxdWVzdFByZXNjcmlwdGlvbiI+PGVsbGlwc2UgY3g9IjI1My43MzA5IiBjeT0iNDkyLjYwNjIiIGZpbGw9IiNGMUYxRjEiIHJ4PSI4Ny43MzA5IiByeT0iMTkuOTQ2MiIgc3R5bGU9InN0cm9rZTojMTgxODE4O3N0cm9rZS13aWR0aDowLjU7Ii8+PHRleHQgZmlsbD0iIzAwMDAwMCIgZm9udC1mYW1pbHk9InNhbnMtc2VyaWYiIGZvbnQtc2l6ZT0iMTQiIGxlbmd0aEFkanVzdD0ic3BhY2luZyIgdGV4dExlbmd0aD0iMTQwIiB4PSIxODMuNzMwOSIgeT0iNDk2LjM0ODQiPlJlcXVlc3QgUHJlc2NyaXB0aW9uPC90ZXh0PjwvZz48ZyBpZD0iZWxlbV92aWV3UHJlc2NyaXB0aW9uIj48ZWxsaXBzZSBjeD0iMjUzLjM5MDIiIGN5PSI1NjUuODM4IiBmaWxsPSIjRjFGMUYxIiByeD0iNzguODkwMiIgcnk9IjE4LjE3OCIgc3R5bGU9InN0cm9rZTojMTgxODE4O3N0cm9rZS13aWR0aDowLjU7Ii8+PHRleHQgZmlsbD0iIzAwMDAwMCIgZm9udC1mYW1pbHk9InNhbnMtc2VyaWYiIGZvbnQtc2l6ZT0iMTQiIGxlbmd0aEFkanVzdD0ic3BhY2luZyIgdGV4dExlbmd0aD0iMTIwIiB4PSIxOTMuMzkwMiIgeT0iNTY5LjU4MDIiPlZpZXcgUHJlc2NyaXB0aW9uPC90ZXh0PjwvZz48ZyBpZD0iZWxlbV9icm93c2VNZWRpY2luZXMiPjxlbGxpcHNlIGN4PSIyNTMuMzY2OCIgY3k9IjY3NC43MzM0IiBmaWxsPSIjRjFGMUYxIiByeD0iNzUuODY2OCIgcnk9IjE3LjU3MzQiIHN0eWxlPSJzdHJva2U6IzE4MTgxODtzdHJva2Utd2lkdGg6MC41OyIvPjx0ZXh0IGZpbGw9IiMwMDAwMDAiIGZvbnQtZmFtaWx5PSJzYW5zLXNlcmlmIiBmb250LXNpemU9IjE0IiBsZW5ndGhBZGp1c3Q9InNwYWNpbmciIHRleHRMZW5ndGg9IjExMyIgeD0iMTk2Ljg2NjgiIHk9IjY3OC40NzU1Ij5Ccm93c2UgTWVkaWNpbmVzPC90ZXh0PjwvZz48ZyBpZD0iZWxlbV9vcmRlck1lZGljaW5lIj48ZWxsaXBzZSBjeD0iMjUzLjU0NTYiIGN5PSI3NDMuNDY5MSIgZmlsbD0iI0YxRjFGMSIgcng9IjY5LjU0NTYiIHJ5PSIxNi4zMDkxIiBzdHlsZT0ic3Ryb2tlOiMxODE4MTg7c3Ryb2tlLXdpZHRoOjAuNTsiLz48dGV4dCBmaWxsPSIjMDAwMDAwIiBmb250LWZhbWlseT0ic2Fucy1zZXJpZiIgZm9udC1zaXplPSIxNCIgbGVuZ3RoQWRqdXN0PSJzcGFjaW5nIiB0ZXh0TGVuZ3RoPSI5OCIgeD0iMjA0LjU0NTYiIHk9Ijc0Ny4yMTEzIj5PcmRlciBNZWRpY2luZTwvdGV4dD48L2c+PGcgaWQ9ImVsZW1fdHJhY2tPcmRlciI+PGVsbGlwc2UgY3g9IjI1My42Njg1IiBjeT0iODA5Ljc5MzciIGZpbGw9IiNGMUYxRjEiIHJ4PSI2MS4xNjg1IiByeT0iMTQuNjMzNyIgc3R5bGU9InN0cm9rZTojMTgxODE4O3N0cm9rZS13aWR0aDowLjU7Ii8+PHRleHQgZmlsbD0iIzAwMDAwMCIgZm9udC1mYW1pbHk9InNhbnMtc2VyaWYiIGZvbnQtc2l6ZT0iMTQiIGxlbmd0aEFkanVzdD0ic3BhY2luZyIgdGV4dExlbmd0aD0iNzciIHg9IjIxNS4xNjg1IiB5PSI4MTMuNTM1OSI+VHJhY2sgT3JkZXI8L3RleHQ+PC9nPjwhLS1lbnRpdHkgcGF0aWVudC0tPjxnIGlkPSJlbGVtX3BhdGllbnQiPjxlbGxpcHNlIGN4PSIzMC41IiBjeT0iMzg5LjY2IiBmaWxsPSIjRjFGMUYxIiByeD0iOCIgcnk9IjgiIHN0eWxlPSJzdHJva2U6IzE4MTgxODtzdHJva2Utd2lkdGg6MC41OyIvPjxwYXRoIGQ9Ik0zMC41LDM5Ny42NiBMMzAuNSw0MjQuNjYgTTE3LjUsNDA1LjY2IEw0My41LDQwNS42NiBNMzAuNSw0MjQuNjYgTDE3LjUsNDM5LjY2IE0zMC41LDQyNC42NiBMNDMuNSw0MzkuNjYgIiBmaWxsPSJub25lIiBzdHlsZT0ic3Ryb2tlOiMxODE4MTg7c3Ryb2tlLXdpZHRoOjAuNTsiLz48dGV4dCBmaWxsPSIjMDAwMDAwIiBmb250LWZhbWlseT0ic2Fucy1zZXJpZiIgZm9udC1zaXplPSIxNCIgbGVuZ3RoQWRqdXN0PSJzcGFjaW5nIiB0ZXh0TGVuZ3RoPSI0OSIgeD0iNiIgeT0iNDU0LjM5NDQiPlBhdGllbnQ8L3RleHQ+PC9nPjwhLS1lbnRpdHkgZG9jdG9yLS0+PGcgaWQ9ImVsZW1fZG9jdG9yIj48ZWxsaXBzZSBjeD0iNDgxLjUiIGN5PSIzODguNjYiIGZpbGw9IiNGMUYxRjEiIHJ4PSI4IiByeT0iOCIgc3R5bGU9InN0cm9rZTojMTgxODE4O3N0cm9rZS13aWR0aDowLjU7Ii8+PHBhdGggZD0iTTQ4MS41LDM5Ni42NiBMNDgxLjUsNDIzLjY2IE00NjguNSw0MDQuNjYgTDQ5NC41LDQwNC42NiBNNDgxLjUsNDIzLjY2IEw0NjguNSw0MzguNjYgTTQ4MS41LDQyMy42NiBMNDk0LjUsNDM4LjY2ICIgZmlsbD0ibm9uZSIgc3R5bGU9InN0cm9rZTojMTgxODE4O3N0cm9rZS13aWR0aDowLjU7Ii8+PHRleHQgZmlsbD0iIzAwMDAwMCIgZm9udC1mYW1pbHk9InNhbnMtc2VyaWYiIGZvbnQtc2l6ZT0iMTQiIGxlbmd0aEFkanVzdD0ic3BhY2luZyIgdGV4dExlbmd0aD0iNDIiIHg9IjQ2MC41IiB5PSI0NTMuMzk0NCI+RG9jdG9yPC90ZXh0PjwvZz48IS0tZW50aXR5IHBoYXJtYWN5LS0+PGcgaWQ9ImVsZW1fcGhhcm1hY3kiPjxlbGxpcHNlIGN4PSI0ODEuNSIgY3k9IjU2OC42NiIgZmlsbD0iI0YxRjFGMSIgcng9IjgiIHJ5PSI4IiBzdHlsZT0ic3Ryb2tlOiMxODE4MTg7c3Ryb2tlLXdpZHRoOjAuNTsiLz48cGF0aCBkPSJNNDgxLjUsNTc2LjY2IEw0ODEuNSw2MDMuNjYgTTQ2OC41LDU4NC42NiBMNDk0LjUsNTg0LjY2IE00ODEuNSw2MDMuNjYgTDQ2OC41LDYxOC42NiBNNDgxLjUsNjAzLjY2IEw0OTQuNSw2MTguNjYgIiBmaWxsPSJub25lIiBzdHlsZT0ic3Ryb2tlOiMxODE4MTg7c3Ryb2tlLXdpZHRoOjAuNTsiLz48dGV4dCBmaWxsPSIjMDAwMDAwIiBmb250LWZhbWlseT0ic2Fucy1zZXJpZiIgZm9udC1zaXplPSIxNCIgbGVuZ3RoQWRqdXN0PSJzcGFjaW5nIiB0ZXh0TGVuZ3RoPSI1NyIgeD0iNDUzIiB5PSI2MzMuMzk0NCI+UGhhcm1hY3k8L3RleHQ+PC9nPjwhLS1lbnRpdHkgc3lzdGVtLS0+PGcgaWQ9ImVsZW1fc3lzdGVtIj48ZWxsaXBzZSBjeD0iNDgxLjUiIGN5PSIyNzguNjYiIGZpbGw9IiNGMUYxRjEiIHJ4PSI4IiByeT0iOCIgc3R5bGU9InN0cm9rZTojMTgxODE4O3N0cm9rZS13aWR0aDowLjU7Ii8+PHBhdGggZD0iTTQ4MS41LDI4Ni42NiBMNDgxLjUsMzEzLjY2IE00NjguNSwyOTQuNjYgTDQ5NC41LDI5NC42NiBNNDgxLjUsMzEzLjY2IEw0NjguNSwzMjguNjYgTTQ4MS41LDMxMy42NiBMNDk0LjUsMzI4LjY2ICIgZmlsbD0ibm9uZSIgc3R5bGU9InN0cm9rZTojMTgxODE4O3N0cm9rZS13aWR0aDowLjU7Ii8+PHRleHQgZmlsbD0iIzAwMDAwMCIgZm9udC1mYW1pbHk9InNhbnMtc2VyaWYiIGZvbnQtc2l6ZT0iMTQiIGxlbmd0aEFkanVzdD0ic3BhY2luZyIgdGV4dExlbmd0aD0iNDMiIHg9IjQ2MCIgeT0iMzQzLjM5NDQiPlN5c3RlbTwvdGV4dD48L2c+PCEtLWxpbmsgcGF0aWVudCB0byBsb2dpbi0tPjxnIGlkPSJsaW5rX3BhdGllbnRfbG9naW4iPjxwYXRoIGQ9Ik0zMy4zMSwzODAuOTggQzM4LjYzLDMxNy40MiA1OS42LDE5MC4zNyAxNDIsMTM0LjY2IEMzMzIuMjgsNiA2MTcuNjY2OCwyMzMuMjMyNSA2ODUuMDg2OCwyOTEuMDkyNSAiIGZpbGw9Im5vbmUiIGlkPSJwYXRpZW50LXRvLWxvZ2luIiBzdHlsZT0ic3Ryb2tlOiMxODE4MTg7c3Ryb2tlLXdpZHRoOjEuMDsiLz48cG9seWdvbiBmaWxsPSIjMTgxODE4IiBwb2ludHM9IjY4OS42NCwyOTUsNjg1LjQxNTMsMjg2LjEwMzMsNjg1Ljg0NTcsMjkxLjc0MzcsNjgwLjIwNTIsMjkyLjE3NDEsNjg5LjY0LDI5NSIgc3R5bGU9InN0cm9rZTojMTgxODE4O3N0cm9rZS13aWR0aDoxLjA7Ii8+PC9nPjwhLS1saW5rIHBhdGllbnQgdG8gc2VhcmNoRG9jdG9ycy0tPjxnIGlkPSJsaW5rX3BhdGllbnRfc2VhcmNoRG9jdG9ycyI+PHBhdGggZD0iTTUwLjE0LDM4MS4xMiBDNjguNzMsMzQ3Ljc1IDEwMC40OCwzMDAuMzkgMTQyLDI3NC42NiBDMTU5LjQsMjYzLjg4IDE3NC42OTM5LDI1Ny44Nzc3IDE5My43NTM5LDI1Mi42NDc3ICIgZmlsbD0ibm9uZSIgaWQ9InBhdGllbnQtdG8tc2VhcmNoRG9jdG9ycyIgc3R5bGU9InN0cm9rZTojMTgxODE4O3N0cm9rZS13aWR0aDoxLjA7Ii8+PHBvbHlnb24gZmlsbD0iIzE4MTgxOCIgcG9pbnRzPSIxOTkuNTQsMjUxLjA2LDE4OS44MDI0LDI0OS41ODQxLDE5NC43MTgyLDI1Mi4zODMxLDE5MS45MTkzLDI1Ny4yOTksMTk5LjU0LDI1MS4wNiIgc3R5bGU9InN0cm9rZTojMTgxODE4O3N0cm9rZS13aWR0aDoxLjA7Ii8+PC9nPjwhLS1saW5rIHBhdGllbnQgdG8gYm9va0FwcG9pbnRtZW50LS0+PGcgaWQ9ImxpbmtfcGF0aWVudF9ib29rQXBwb2ludG1lbnQiPjxwYXRoIGQ9Ik01NS4yMywzOTUuOTkgQzY0LjE3LDM4OC4wNyA3NC42NywzNzkuNDggODUsMzcyLjY2IEMxMjAuNzgsMzQ5LjA0IDE2MC45MDE5LDMzNC4yNjY0IDE5NS41OTE5LDMyNC4xMDY0ICIgZmlsbD0ibm9uZSIgaWQ9InBhdGllbnQtdG8tYm9va0FwcG9pbnRtZW50IiBzdHlsZT0ic3Ryb2tlOiMxODE4MTg7c3Ryb2tlLXdpZHRoOjEuMDsiLz48cG9seWdvbiBmaWxsPSIjMTgxODE4IiBwb2ludHM9IjIwMS4zNSwzMjIuNDIsMTkxLjU4ODUsMzIxLjExMDksMTk2LjU1MTYsMzIzLjgyNTQsMTkzLjgzNzEsMzI4Ljc4ODQsMjAxLjM1LDMyMi40MiIgc3R5bGU9InN0cm9rZTojMTgxODE4O3N0cm9rZS13aWR0aDoxLjA7Ii8+PC9nPjwhLS1saW5rIHBhdGllbnQgdG8gdmlld0FwcG9pbnRtZW50cy0tPjxnIGlkPSJsaW5rX3BhdGllbnRfdmlld0FwcG9pbnRtZW50cyI+PHBhdGggZD0iTTU1LjI2LDQxMC42NyBDNjQuNDYsNDA3LjggNzUuMTQsNDA0Ljc3IDg1LDQwMi42NiBDMTE1LjY5LDM5Ni4xIDE0NC4wMzE3LDM5MS44ODY0IDE3My41NTE3LDM4OC4zODY0ICIgZmlsbD0ibm9uZSIgaWQ9InBhdGllbnQtdG8tdmlld0FwcG9pbnRtZW50cyIgc3R5bGU9InN0cm9rZTojMTgxODE4O3N0cm9rZS13aWR0aDoxLjA7Ii8+PHBvbHlnb24gZmlsbD0iIzE4MTgxOCIgcG9pbnRzPSIxNzkuNTEsMzg3LjY4LDE3MC4xMDE2LDM4NC43Njc1LDE3NC41NDQ4LDM4OC4yNjg3LDE3MS4wNDM2LDM5Mi43MTE4LDE3OS41MSwzODcuNjgiIHN0eWxlPSJzdHJva2U6IzE4MTgxODtzdHJva2Utd2lkdGg6MS4wOyIvPjwvZz48IS0tbGluayB2aWV3QXBwb2ludG1lbnRzIHRvIHBhdGllbnQtLT48ZyBpZD0ibGlua192aWV3QXBwb2ludG1lbnRzX3BhdGllbnQiPjxwYXRoIGQ9Ik0yMTcuMDksMzk3LjE5IEMxOTQsNDA3LjA0IDE2Mi44OCw0MTguNTggMTM0LDQyMy42NiBDMTEyLjU1LDQyNy40MyAxMDYuNzUsNDI0LjY3IDg1LDQyMy42NiBDNzUuMjIsNDIzLjIgNzAuNDMwMiw0MjIuODc3NyA2MS4xNDAyLDQyMS45NDc3ICIgZmlsbD0ibm9uZSIgaWQ9InZpZXdBcHBvaW50bWVudHMtdG8tcGF0aWVudCIgc3R5bGU9InN0cm9rZTojMTgxODE4O3N0cm9rZS13aWR0aDoxLjA7Ii8+PHBvbHlnb24gZmlsbD0iIzE4MTgxOCIgcG9pbnRzPSI1NS4xNyw0MjEuMzUsNjMuNzI2OCw0MjYuMjI2Niw2MC4xNDUxLDQyMS44NDgsNjQuNTIzNyw0MTguMjY2NCw1NS4xNyw0MjEuMzUiIHN0eWxlPSJzdHJva2U6IzE4MTgxODtzdHJva2Utd2lkdGg6MS4wOyIvPjx0ZXh0IGZpbGw9IiMwMDAwMDAiIGZvbnQtZmFtaWx5PSJzYW5zLXNlcmlmIiBmb250LXNpemU9IjEzIiBsZW5ndGhBZGp1c3Q9InNwYWNpbmciIHRleHRMZW5ndGg9IjQ3IiB4PSI4NiIgeT0iNDIxLjk0OTEiPkRpc3BsYXk8L3RleHQ+PC9nPjwhLS1saW5rIHBhdGllbnQgdG8gYnJvd3NlTWVkaWNpbmVzLS0+PGcgaWQ9ImxpbmtfcGF0aWVudF9icm93c2VNZWRpY2luZXMiPjxwYXRoIGQ9Ik00Ni40NSw0NTYuMzEgQzU2LjExLDQ3OC45MSA2OS43Miw1MDcuODEgODUsNTMxLjY2IEMxMDYuMjgsNTY0Ljg2IDExMi43NCw1NzMuMjIgMTQyLDU5OS42NiBDMTY3LjYzLDYyMi44MiAxOTUuNzE4LDY0MS4zMzgyIDIxOS4wMTgsNjU1LjM0ODIgIiBmaWxsPSJub25lIiBpZD0icGF0aWVudC10by1icm93c2VNZWRpY2luZXMiIHN0eWxlPSJzdHJva2U6IzE4MTgxODtzdHJva2Utd2lkdGg6MS4wOyIvPjxwb2x5Z29uIGZpbGw9IiMxODE4MTgiIHBvaW50cz0iMjI0LjE2LDY1OC40NCwyMTguNTA4Miw2NTAuMzc0MiwyMTkuODc1LDY1NS44NjM1LDIxNC4zODU3LDY1Ny4yMzAzLDIyNC4xNiw2NTguNDQiIHN0eWxlPSJzdHJva2U6IzE4MTgxODtzdHJva2Utd2lkdGg6MS4wOyIvPjwvZz48IS0tbGluayBwYXRpZW50IHRvIG9yZGVyTWVkaWNpbmUtLT48ZyBpZD0ibGlua19wYXRpZW50X29yZGVyTWVkaWNpbmUiPjxwYXRoIGQ9Ik0zNC4zMiw0NTYuMzIgQzQxLjE2LDUxOS4xNCA2NC4zMiw2NDQuODEgMTQyLDcwOS42NiBDMTU2Ljc5LDcyMi4wMSAxNzAuMjQzNiw3MjguMjkzMyAxODguNTEzNiw3MzMuMzAzMyAiIGZpbGw9Im5vbmUiIGlkPSJwYXRpZW50LXRvLW9yZGVyTWVkaWNpbmUiIHN0eWxlPSJzdHJva2U6IzE4MTgxODtzdHJva2Utd2lkdGg6MS4wOyIvPjxwb2x5Z29uIGZpbGw9IiMxODE4MTgiIHBvaW50cz0iMTk0LjMsNzM0Ljg5LDE4Ni42NzgzLDcyOC42NTIzLDE4OS40NzgsNzMzLjU2NzcsMTg0LjU2MjYsNzM2LjM2NzUsMTk0LjMsNzM0Ljg5IiBzdHlsZT0ic3Ryb2tlOiMxODE4MTg7c3Ryb2tlLXdpZHRoOjEuMDsiLz48L2c+PCEtLWxpbmsgcGF0aWVudCB0byByZXF1ZXN0UHJlc2NyaXB0aW9uLS0+PGcgaWQ9ImxpbmtfcGF0aWVudF9yZXF1ZXN0UHJlc2NyaXB0aW9uIj48cGF0aCBkPSJNNTUuMTUsNDI2LjU4IEM5MC4zNCw0MzguMzYgMTUxLjU4MDUsNDU4Ljg2NDkgMTk3LjY2MDUsNDc0LjI5NDkgIiBmaWxsPSJub25lIiBpZD0icGF0aWVudC10by1yZXF1ZXN0UHJlc2NyaXB0aW9uIiBzdHlsZT0ic3Ryb2tlOiMxODE4MTg7c3Ryb2tlLXdpZHRoOjEuMDsiLz48cG9seWdvbiBmaWxsPSIjMTgxODE4IiBwb2ludHM9IjIwMy4zNSw0NzYuMiwxOTYuMDg1OCw0NjkuNTQ5MywxOTguNjA4Nyw0NzQuNjEyNCwxOTMuNTQ1Nyw0NzcuMTM1MywyMDMuMzUsNDc2LjIiIHN0eWxlPSJzdHJva2U6IzE4MTgxODtzdHJva2Utd2lkdGg6MS4wOyIvPjwvZz48IS0tbGluayBsb2dpbiB0byBzeXN0ZW0tLT48ZyBpZD0ibGlua19sb2dpbl9zeXN0ZW0iPjxwYXRoIGQ9Ik02NjguOTYsMzA3LjY2IEM2MjIuMzMsMzA3LjY2IDU0Ny4zNSwzMDcuNjYgNTA5LjM0LDMwNy42NiAiIGZpbGw9Im5vbmUiIGlkPSJsb2dpbi10by1zeXN0ZW0iIHN0eWxlPSJzdHJva2U6IzE4MTgxODtzdHJva2Utd2lkdGg6MS4wOyIvPjxwb2x5Z29uIGZpbGw9IiMxODE4MTgiIHBvaW50cz0iNTAzLjM0LDMwNy42Niw1MTIuMzQsMzExLjY2LDUwOC4zNCwzMDcuNjYsNTEyLjM0LDMwMy42Niw1MDMuMzQsMzA3LjY2IiBzdHlsZT0ic3Ryb2tlOiMxODE4MTg7c3Ryb2tlLXdpZHRoOjEuMDsiLz48dGV4dCBmaWxsPSIjMDAwMDAwIiBmb250LWZhbWlseT0ic2Fucy1zZXJpZiIgZm9udC1zaXplPSIxMyIgbGVuZ3RoQWRqdXN0PSJzcGFjaW5nIiB0ZXh0TGVuZ3RoPSI4MCIgeD0iNTQxIiB5PSIzMDUuOTQ5MSI+QXV0aGVudGljYXRlPC90ZXh0PjwvZz48IS0tbGluayBzeXN0ZW0gdG8gcmVnaXN0ZXItLT48ZyBpZD0ibGlua19zeXN0ZW1fcmVnaXN0ZXIiPjxwYXRoIGQ9Ik01MDMuMjQsMzI2LjQyIEM1MTMuODMsMzM1LjUyIDUyNy4xNiwzNDYuMjcgNTQwLDM1NC42NiBDNTg0LjEsMzgzLjQ4IDYzNS4xMDk4LDQwNS4zNzA3IDY2OC45Njk4LDQxOC41NzA3ICIgZmlsbD0ibm9uZSIgaWQ9InN5c3RlbS10by1yZWdpc3RlciIgc3R5bGU9InN0cm9rZTojMTgxODE4O3N0cm9rZS13aWR0aDoxLjA7Ii8+PHBvbHlnb24gZmlsbD0iIzE4MTgxOCIgcG9pbnRzPSI2NzQuNTYsNDIwLjc1LDY2Ny42Mjc1LDQxMy43NTQyLDY2OS45MDE1LDQxOC45MzM5LDY2NC43MjE4LDQyMS4yMDc5LDY3NC41Niw0MjAuNzUiIHN0eWxlPSJzdHJva2U6IzE4MTgxODtzdHJva2Utd2lkdGg6MS4wOyIvPjwvZz48IS0tbGluayBzeXN0ZW0gdG8gbG9nb3V0LS0+PGcgaWQ9Imxpbmtfc3lzdGVtX2xvZ291dCI+PHBhdGggZD0iTTUwMy4zNCwzMTMuNDkgQzU0Mi41NCwzMjQuNDcgNjIxLjY0MTgsMzQ2LjYxMzkgNjY3LjQ0MTgsMzU5LjQyMzkgIiBmaWxsPSJub25lIiBpZD0ic3lzdGVtLXRvLWxvZ291dCIgc3R5bGU9InN0cm9rZTojMTgxODE4O3N0cm9rZS13aWR0aDoxLjA7Ii8+PHBvbHlnb24gZmlsbD0iIzE4MTgxOCIgcG9pbnRzPSI2NzMuMjIsMzYxLjA0LDY2NS42MzAxLDM1NC43NjM2LDY2OC40MDQ4LDM1OS42OTMyLDY2My40NzUyLDM2Mi40Njc5LDY3My4yMiwzNjEuMDQiIHN0eWxlPSJzdHJva2U6IzE4MTgxODtzdHJva2Utd2lkdGg6MS4wOyIvPjwvZz48IS0tbGluayBzZWFyY2hEb2N0b3JzIHRvIGRvY3Rvci0tPjxnIGlkPSJsaW5rX3NlYXJjaERvY3RvcnNfZG9jdG9yIj48cGF0aCBkPSJNMzA1Ljg5LDI1MS41MiBDMzI1LjE5LDI1Ni44NSAzNDYuODMsMjY0LjM4IDM2NSwyNzQuNjYgQzQwOC4yLDI5OS4wOSA0MzguNTEyLDM0MS40MTQzIDQ1OC4wMzIsMzc0Ljk1NDMgIiBmaWxsPSJub25lIiBpZD0ic2VhcmNoRG9jdG9ycy10by1kb2N0b3IiIHN0eWxlPSJzdHJva2U6IzE4MTgxODtzdHJva2Utd2lkdGg6MS4wOyIvPjxwb2x5Z29uIGZpbGw9IiMxODE4MTgiIHBvaW50cz0iNDYxLjA1LDM4MC4xNCw0NTkuOTgwMSwzNzAuMzQ5NCw0NTguNTM1LDM3NS44MTg2LDQ1My4wNjU4LDM3NC4zNzM1LDQ2MS4wNSwzODAuMTQiIHN0eWxlPSJzdHJva2U6IzE4MTgxODtzdHJva2Utd2lkdGg6MS4wOyIvPjx0ZXh0IGZpbGw9IiMwMDAwMDAiIGZvbnQtZmFtaWx5PSJzYW5zLXNlcmlmIiBmb250LXNpemU9IjEzIiBsZW5ndGhBZGp1c3Q9InNwYWNpbmciIHRleHRMZW5ndGg9IjQ4IiB4PSIzNzQiIHk9IjI3OC45NDkxIj5SZXF1ZXN0PC90ZXh0PjwvZz48IS0tbGluayBib29rQXBwb2ludG1lbnQgdG8gZG9jdG9yLS0+PGcgaWQ9ImxpbmtfYm9va0FwcG9pbnRtZW50X2RvY3RvciI+PHBhdGggZD0iTTMwNC43NiwzMjIuNjEgQzMyNC4wMiwzMjguMzMgMzQ1LjkzLDMzNS43OSAzNjUsMzQ0LjY2IEM0MDAuMjgsMzYxLjA2IDQzMi44ODk0LDM4Mi45MDYxIDQ1NS4yNjk0LDM5OS4wMDYxICIgZmlsbD0ibm9uZSIgaWQ9ImJvb2tBcHBvaW50bWVudC10by1kb2N0b3IiIHN0eWxlPSJzdHJva2U6IzE4MTgxODtzdHJva2Utd2lkdGg6MS4wOyIvPjxwb2x5Z29uIGZpbGw9IiMxODE4MTgiIHBvaW50cz0iNDYwLjE0LDQwMi41MSw0NTUuMTcsMzk0LjAwNzEsNDU2LjA4MTIsMzk5LjU5MDEsNDUwLjQ5ODIsNDAwLjUwMTMsNDYwLjE0LDQwMi41MSIgc3R5bGU9InN0cm9rZTojMTgxODE4O3N0cm9rZS13aWR0aDoxLjA7Ii8+PHRleHQgZmlsbD0iIzAwMDAwMCIgZm9udC1mYW1pbHk9InNhbnMtc2VyaWYiIGZvbnQtc2l6ZT0iMTMiIGxlbmd0aEFkanVzdD0ic3BhY2luZyIgdGV4dExlbmd0aD0iNDgiIHg9IjM3NCIgeT0iMzQ3Ljk0OTEiPlJlcXVlc3Q8L3RleHQ+PC9nPjwhLS1saW5rIGNhbmNlbEFwcG9pbnRtZW50IHRvIHN5c3RlbS0tPjxnIGlkPSJsaW5rX2NhbmNlbEFwcG9pbnRtZW50X3N5c3RlbSI+PHBhdGggZD0iTTMyMC4zMywxODAuNzYgQzM1My41NCwxODguOCAzOTMuMDIsMjAyLjMzIDQyMywyMjQuNjYgQzQzOC44OSwyMzYuNDkgNDQ4Ljg0MzYsMjQ4LjkxNjcgNDU4LjQ4MzYsMjY0Ljg0NjcgIiBmaWxsPSJub25lIiBpZD0iY2FuY2VsQXBwb2ludG1lbnQtdG8tc3lzdGVtIiBzdHlsZT0ic3Ryb2tlOiMxODE4MTg7c3Ryb2tlLXdpZHRoOjEuMDsiLz48cG9seWdvbiBmaWxsPSIjMTgxODE4IiBwb2ludHM9IjQ2MS41OSwyNjkuOTgsNDYwLjM1MjYsMjYwLjIwOTIsNDU5LjAwMTMsMjY1LjcwMjMsNDUzLjUwODMsMjY0LjM1MSw0NjEuNTksMjY5Ljk4IiBzdHlsZT0ic3Ryb2tlOiMxODE4MTg7c3Ryb2tlLXdpZHRoOjEuMDsiLz48dGV4dCBmaWxsPSIjMDAwMDAwIiBmb250LWZhbWlseT0ic2Fucy1zZXJpZiIgZm9udC1zaXplPSIxMyIgbGVuZ3RoQWRqdXN0PSJzcGFjaW5nIiB0ZXh0TGVuZ3RoPSI0OCIgeD0iMzc0IiB5PSIxOTcuOTQ5MSI+UmVxdWVzdDwvdGV4dD48L2c+PCEtLWxpbmsgcmVxdWVzdFByZXNjcmlwdGlvbiB0byBkb2N0b3ItLT48ZyBpZD0ibGlua19yZXF1ZXN0UHJlc2NyaXB0aW9uX2RvY3RvciI+PHBhdGggZD0iTTMwMy44Miw0NzYuMjkgQzM1Mi43OCw0NjAuMDQgNDE5LjczNTEsNDM3LjgxOSA0NTQuNjQ1MSw0MjYuMjM5ICIgZmlsbD0ibm9uZSIgaWQ9InJlcXVlc3RQcmVzY3JpcHRpb24tdG8tZG9jdG9yIiBzdHlsZT0ic3Ryb2tlOiMxODE4MTg7c3Ryb2tlLXdpZHRoOjEuMDsiLz48cG9seWdvbiBmaWxsPSIjMTgxODE4IiBwb2ludHM9IjQ2MC4zNCw0MjQuMzUsNDUwLjUzODMsNDIzLjM4Nyw0NTUuNTk0Myw0MjUuOTI0Miw0NTMuMDU3MSw0MzAuOTgwMSw0NjAuMzQsNDI0LjM1IiBzdHlsZT0ic3Ryb2tlOiMxODE4MTg7c3Ryb2tlLXdpZHRoOjEuMDsiLz48dGV4dCBmaWxsPSIjMDAwMDAwIiBmb250LWZhbWlseT0ic2Fucy1zZXJpZiIgZm9udC1zaXplPSIxMyIgbGVuZ3RoQWRqdXN0PSJzcGFjaW5nIiB0ZXh0TGVuZ3RoPSI0OCIgeD0iMzc0IiB5PSI0MzYuOTQ5MSI+UmVxdWVzdDwvdGV4dD48L2c+PCEtLWxpbmsgdmlld1ByZXNjcmlwdGlvbiB0byBwYXRpZW50LS0+PGcgaWQ9Imxpbmtfdmlld1ByZXNjcmlwdGlvbl9wYXRpZW50Ij48cGF0aCBkPSJNMTk3LjI3LDU1MyBDMTc4LjkxLDU0Ny40MyAxNTguODYsNTM5LjggMTQyLDUyOS42NiBDMTA3LjI4LDUwOC43OSA3OS4zNDY0LDQ3OS4yNDggNTguODg2NCw0NTQuMzE4ICIgZmlsbD0ibm9uZSIgaWQ9InZpZXdQcmVzY3JpcHRpb24tdG8tcGF0aWVudCIgc3R5bGU9InN0cm9rZTojMTgxODE4O3N0cm9rZS13aWR0aDoxLjA7Ii8+PHBvbHlnb24gZmlsbD0iIzE4MTgxOCIgcG9pbnRzPSI1NS4wOCw0NDkuNjgsNTcuNjk3Niw0NTkuMTc0Niw1OC4yNTIsNDUzLjU0NSw2My44ODE2LDQ1NC4wOTk0LDU1LjA4LDQ0OS42OCIgc3R5bGU9InN0cm9rZTojMTgxODE4O3N0cm9rZS13aWR0aDoxLjA7Ii8+PHRleHQgZmlsbD0iIzAwMDAwMCIgZm9udC1mYW1pbHk9InNhbnMtc2VyaWYiIGZvbnQtc2l6ZT0iMTMiIGxlbmd0aEFkanVzdD0ic3BhY2luZyIgdGV4dExlbmd0aD0iNDciIHg9Ijg2IiB5PSI0ODIuOTQ5MSI+RGlzcGxheTwvdGV4dD48L2c+PCEtLWxpbmsgcGhhcm1hY3kgdG8gbG9naW4tLT48ZyBpZD0ibGlua19waGFybWFjeV9sb2dpbiI+PHBhdGggZD0iTTQ5NC40LDU1OS45MyBDNTEzLjkyLDUwMy45MiA1NTcuOTUsMzk4LjkxIDYzMCwzMzguNjYgQzY0My4wNCwzMjcuNzYgNjU0Ljc2MTQsMzIyLjExNzggNjY5LjQzMTQsMzE3LjE5NzggIiBmaWxsPSJub25lIiBpZD0icGhhcm1hY3ktdG8tbG9naW4iIHN0eWxlPSJzdHJva2U6IzE4MTgxODtzdHJva2Utd2lkdGg6MS4wOyIvPjxwb2x5Z29uIGZpbGw9IiMxODE4MTgiIHBvaW50cz0iNjc1LjEyLDMxNS4yOSw2NjUuMzE1MiwzMTQuMzU5Myw2NzAuMzc5NSwzMTYuODc5OSw2NjcuODU5LDMyMS45NDQxLDY3NS4xMiwzMTUuMjkiIHN0eWxlPSJzdHJva2U6IzE4MTgxODtzdHJva2Utd2lkdGg6MS4wOyIvPjwvZz48IS0tbGluayBwaGFybWFjeSB0byByZWdpc3Rlci0tPjxnIGlkPSJsaW5rX3BoYXJtYWN5X3JlZ2lzdGVyIj48cGF0aCBkPSJNNTEwLjE1LDU4OC40MyBDNTM5LjgsNTc3LjY2IDU4Ny4yOCw1NTcuNzkgNjIyLDUzMC42NiBDNjU0LjE4LDUwNS41MSA2NzguOTgzOSw0NzAuNzYzMiA2OTIuMzgzOSw0NTAuMTEzMiAiIGZpbGw9Im5vbmUiIGlkPSJwaGFybWFjeS10by1yZWdpc3RlciIgc3R5bGU9InN0cm9rZTojMTgxODE4O3N0cm9rZS13aWR0aDoxLjA7Ii8+PHBvbHlnb24gZmlsbD0iIzE4MTgxOCIgcG9pbnRzPSI2OTUuNjUsNDQ1LjA4LDY4Ny4zOTU0LDQ1MC40NTI0LDY5Mi45MjgzLDQ0OS4yNzQzLDY5NC4xMDYzLDQ1NC44MDcxLDY5NS42NSw0NDUuMDgiIHN0eWxlPSJzdHJva2U6IzE4MTgxODtzdHJva2Utd2lkdGg6MS4wOyIvPjwvZz48IS0tbGluayBwaGFybWFjeSB0byBsb2dvdXQtLT48ZyBpZD0ibGlua19waGFybWFjeV9sb2dvdXQiPjxwYXRoIGQ9Ik01MDguNzQsNTU5LjkgQzUxNy44Miw1NDguNCA1MjguNiw1MzYuMjcgNTQwLDUyNi42NiBDNTcxLjk0LDQ5OS43MiA1OTkuMTEsNTE1LjYyIDYyMiw0ODAuNjYgQzY0MS41Nyw0NTAuNzYgNjA4Ljc1LDQyOS4zOSA2MzAsNDAwLjY2IEM2MzkuMjgsMzg4LjEyIDY0OC44NzMzLDM4Mi40MTAxIDY2My4xNzMzLDM3Ny45NDAxICIgZmlsbD0ibm9uZSIgaWQ9InBoYXJtYWN5LXRvLWxvZ291dCIgc3R5bGU9InN0cm9rZTojMTgxODE4O3N0cm9rZS13aWR0aDoxLjA7Ii8+PHBvbHlnb24gZmlsbD0iIzE4MTgxOCIgcG9pbnRzPSI2NjguOSwzNzYuMTUsNjU5LjExNjUsMzc1LjAxNzMsNjY0LjEyNzcsMzc3LjY0MTgsNjYxLjUwMzMsMzgyLjY1Myw2NjguOSwzNzYuMTUiIHN0eWxlPSJzdHJva2U6IzE4MTgxODtzdHJva2Utd2lkdGg6MS4wOyIvPjwvZz48IS0tbGluayBicm93c2VNZWRpY2luZXMgdG8gcGhhcm1hY3ktLT48ZyBpZD0ibGlua19icm93c2VNZWRpY2luZXNfcGhhcm1hY3kiPjxwYXRoIGQ9Ik0yOTYuNzQsNjYwLjI3IEMzNDIuMzUsNjQ0LjczIDQwOC4wMjA1LDYyMi4zNTQ5IDQ0Ny4wMzA1LDYwOS4wNjQ5ICIgZmlsbD0ibm9uZSIgaWQ9ImJyb3dzZU1lZGljaW5lcy10by1waGFybWFjeSIgc3R5bGU9InN0cm9rZTojMTgxODE4O3N0cm9rZS13aWR0aDoxLjA7Ii8+PHBvbHlnb24gZmlsbD0iIzE4MTgxOCIgcG9pbnRzPSI0NTIuNzEsNjA3LjEzLDQ0Mi45MDA5LDYwNi4yNDYsNDQ3Ljk3NzEsNjA4Ljc0MjQsNDQ1LjQ4MDcsNjEzLjgxODYsNDUyLjcxLDYwNy4xMyIgc3R5bGU9InN0cm9rZTojMTgxODE4O3N0cm9rZS13aWR0aDoxLjA7Ii8+PHRleHQgZmlsbD0iIzAwMDAwMCIgZm9udC1mYW1pbHk9InNhbnMtc2VyaWYiIGZvbnQtc2l6ZT0iMTMiIGxlbmd0aEFkanVzdD0ic3BhY2luZyIgdGV4dExlbmd0aD0iNDgiIHg9IjM3NCIgeT0iNjE1Ljk0OTEiPlJlcXVlc3Q8L3RleHQ+PC9nPjwhLS1saW5rIG9yZGVyTWVkaWNpbmUgdG8gcGhhcm1hY3ktLT48ZyBpZD0ibGlua19vcmRlck1lZGljaW5lX3BoYXJtYWN5Ij48cGF0aCBkPSJNMzA2LjIyLDczMi44MiBDMzI1LjQ1LDcyNy41IDM0Ni45Nyw3MTkuOTcgMzY1LDcwOS42NiBDMzk5LjU1LDY4OS45IDQyNy41MTI4LDY2MS45ODQ4IDQ0OC45ODI4LDYzNy4wNzQ4ICIgZmlsbD0ibm9uZSIgaWQ9Im9yZGVyTWVkaWNpbmUtdG8tcGhhcm1hY3kiIHN0eWxlPSJzdHJva2U6IzE4MTgxODtzdHJva2Utd2lkdGg6MS4wOyIvPjxwb2x5Z29uIGZpbGw9IiMxODE4MTgiIHBvaW50cz0iNDUyLjksNjMyLjUzLDQ0My45OTQzLDYzNi43MzU4LDQ0OS42MzU3LDYzNi4zMTc0LDQ1MC4wNTQxLDY0MS45NTg3LDQ1Mi45LDYzMi41MyIgc3R5bGU9InN0cm9rZTojMTgxODE4O3N0cm9rZS13aWR0aDoxLjA7Ii8+PHRleHQgZmlsbD0iIzAwMDAwMCIgZm9udC1mYW1pbHk9InNhbnMtc2VyaWYiIGZvbnQtc2l6ZT0iMTMiIGxlbmd0aEFkanVzdD0ic3BhY2luZyIgdGV4dExlbmd0aD0iNDgiIHg9IjM3NCIgeT0iNjY0Ljk0OTEiPlJlcXVlc3Q8L3RleHQ+PC9nPjwhLS1saW5rIHRyYWNrT3JkZXIgdG8gcGhhcm1hY3ktLT48ZyBpZD0ibGlua190cmFja09yZGVyX3BoYXJtYWN5Ij48cGF0aCBkPSJNMzAyLjAzLDgwMC44NCBDMzIyLjI2LDc5NS44NiAzNDUuNjEsNzg4LjQxIDM2NSw3NzcuNjYgQzM5NS4yOCw3NjAuODcgNDAyLjU3LDc1My42MSA0MjMsNzI1LjY2IEM0NDMuMTksNjk4LjAyIDQ1Ni40ODU4LDY2Ny44MDc0IDQ2Ni4yMjU4LDY0MS4wNzc0ICIgZmlsbD0ibm9uZSIgaWQ9InRyYWNrT3JkZXItdG8tcGhhcm1hY3kiIHN0eWxlPSJzdHJva2U6IzE4MTgxODtzdHJva2Utd2lkdGg6MS4wOyIvPjxwb2x5Z29uIGZpbGw9IiMxODE4MTgiIHBvaW50cz0iNDY4LjI4LDYzNS40NCw0NjEuNDQwNSw2NDIuNTI2Nyw0NjYuNTY4Miw2NDAuMTM3OCw0NjguOTU3LDY0NS4yNjU2LDQ2OC4yOCw2MzUuNDQiIHN0eWxlPSJzdHJva2U6IzE4MTgxODtzdHJva2Utd2lkdGg6MS4wOyIvPjx0ZXh0IGZpbGw9IiMwMDAwMDAiIGZvbnQtZmFtaWx5PSJzYW5zLXNlcmlmIiBmb250LXNpemU9IjEzIiBsZW5ndGhBZGp1c3Q9InNwYWNpbmciIHRleHRMZW5ndGg9IjQ4IiB4PSIzNzQiIHk9IjcyMy45NDkxIj5SZXF1ZXN0PC90ZXh0PjwvZz48IS0tU1JDPVtWTEhEUm04WDRCdHBBb1JVX0dDVWNqSHdoQWNmUlUtOHF2TWVvblFtblpKenh1TTFyTzVyVXpoWGxKVFZwQjA3X0ZKVzNMWlR4M25paktOYmpNYzVhQ2VSMm9sZkRST1VmOENrY1BiTzZGZTRWNGpNaHp6OVV2SmdHV3hQcGpKd3VabVU4LTc4NGdBSlFZeVJYQ2N4R21qQnNPUjNDUUlPbTh5MEUzYktxV05zNUhpVDdFbWEtamZ5dTg5ZHEtWU1zNEVxQWlnU1ZDeTVLX29vbDh6VFB0SmhPeXhuejZrS0xrcm9tdXYyRU84b21oTHBPX1IwZWY5dzRxMjZTVnNKUjFLVTFYd0F1MTZWM3VyZHhmNUEtV3VlMXVpLUxuUVRpaGdCYV90bGRoekV3M25tVFJ2cDhaVy1BNlpXNTBpZ0Y3WDFJem5nZkxrNDV4ajVnemtjQWNMa3BKYnlVcmJnU0tGVzVVRHcyZEVMYXpmNGc0VXV6aXM2QWI5WTRsZnVmY0NnQ0l0eVRGZ0dqdWFadlUwdkttLVBTdUZQNTh2TEx2bWhVLTNDbFA0OGdaVkxjVHhRMzF2RlZYVHlqOThVWFNYbTJmM1Y0U0ZvMm41NWJ5SWFEbnhZdkhxSExSbHRIT0NyQmNsaFBWTnJhQWZsVFdPQnhSZzNsMFhuZi1WeFVVbEw2bWk4cnJ5SzZ4U2VpRWlyclNmdUtUTmVLZmZVVG9rZGNFQU93QlE1OHVlX10tLT48L2c+PC9zdmc+;" vertex="1" parent="1">
            <mxGeometry x="333" y="657" width="779" height="847" as="geometry" />
          </mxCell>
        </UserObject>
        <UserObject label="" plantUmlData="{&quot;data&quot;:&quot;@startuml\n\nleft to right direction\n\nactor Patient as patient\nactor Doctor as doctor\nactor Pharmacy as pharmacy\nactor System as system\n\npackage \&quot;User Management\&quot; {\n  usecase \&quot;Register\&quot; as register\n  usecase \&quot;Login\&quot; as login\n  usecase \&quot;Logout\&quot; as logout\n}\n\npackage \&quot;Appointment Management\&quot; {\n  usecase \&quot;Search Doctors\&quot; as searchDoctors\n  usecase \&quot;Book Appointment\&quot; as bookAppointment\n  usecase \&quot;Cancel Appointment\&quot; as cancelAppointment\n  usecase \&quot;View Appointments\&quot; as viewAppointments\n}\n\npackage \&quot;Prescription Management\&quot; {\n  usecase \&quot;Request Prescription\&quot; as requestPrescription\n  usecase \&quot;View Prescription\&quot; as viewPrescription\n}\n\npackage \&quot;Medicine Ordering\&quot; {\n  usecase \&quot;Browse Medicines\&quot; as browseMedicines\n  usecase \&quot;Order Medicine\&quot; as orderMedicine\n  usecase \&quot;Track Order\&quot; as trackOrder\n}\n\npatient --&gt; login\npatient --&gt; searchDoctors\npatient --&gt; bookAppointment\npatient --&gt; viewAppointments\npatient --&gt; browseMedicines\npatient --&gt; orderMedicine\npatient --&gt; requestPrescription\n\nlogin --&gt; system : Authenticate\n\nsystem --&gt; register\nsystem --&gt; logout\n\nsearchDoctors --&gt; doctor : Request\nbookAppointment --&gt; doctor : Request\ncancelAppointment --&gt; system : Request\nviewAppointments --&gt; patient : Display\n\nrequestPrescription --&gt; doctor : Request\nviewPrescription --&gt; patient : Display\n\n  pharmacy --&gt; login\n\npharmacy --&gt; register\npharmacy --&gt; logout\nbrowseMedicines --&gt; pharmacy : Request\norderMedicine --&gt; pharmacy : Request\ntrackOrder --&gt; pharmacy : Request\n\n\n\n@enduml\n&quot;,&quot;format&quot;:&quot;svg&quot;}" id="wL2UVFf8Fw0FVH0qUWVH-8">
          <mxCell style="shape=image;noLabel=1;verticalAlign=top;aspect=fixed;imageAspect=0;image=data:image/svg+xml,PD94bWwgdmVyc2lvbj0iMS4wIiBlbmNvZGluZz0idXMtYXNjaWkiIHN0YW5kYWxvbmU9Im5vIj8+PHN2ZyB4bWxucz0iaHR0cDovL3d3dy53My5vcmcvMjAwMC9zdmciIHhtbG5zOnhsaW5rPSJodHRwOi8vd3d3LnczLm9yZy8xOTk5L3hsaW5rIiBjb250ZW50U3R5bGVUeXBlPSJ0ZXh0L2NzcyIgaGVpZ2h0PSI4NDdweCIgcHJlc2VydmVBc3BlY3RSYXRpbz0ibm9uZSIgc3R5bGU9IndpZHRoOjc3OXB4O2hlaWdodDo4NDdweDtiYWNrZ3JvdW5kOiNGRkZGRkY7IiB2ZXJzaW9uPSIxLjEiIHZpZXdCb3g9IjAgMCA3NzkgODQ3IiB3aWR0aD0iNzc5cHgiIHpvb21BbmRQYW49Im1hZ25pZnkiPjxkZWZzLz48Zz48IS0tY2x1c3RlciBVc2VyIE1hbmFnZW1lbnQtLT48ZyBpZD0iY2x1c3Rlcl9Vc2VyIE1hbmFnZW1lbnQiPjxwYXRoIGQ9Ik02NDAuNSwyNjAuNjYgTDc0Ny41LDI2MC42NiBBMy43NSwzLjc1IDAgMCAxIDc1MCwyNjMuMTYgTDc1NywyODEuNjQ0NCBMNzY5LjUsMjgxLjY0NDQgQTIuNSwyLjUgMCAwIDEgNzcyLDI4NC4xNDQ0IEw3NzIsNDU5LjE2IEEyLjUsMi41IDAgMCAxIDc2OS41LDQ2MS42NiBMNjQwLjUsNDYxLjY2IEEyLjUsMi41IDAgMCAxIDYzOCw0NTkuMTYgTDYzOCwyNjMuMTYgQTIuNSwyLjUgMCAwIDEgNjQwLjUsMjYwLjY2ICIgZmlsbD0ibm9uZSIgc3R5bGU9InN0cm9rZTojMDAwMDAwO3N0cm9rZS13aWR0aDoxLjU7Ii8+PGxpbmUgc3R5bGU9InN0cm9rZTojMDAwMDAwO3N0cm9rZS13aWR0aDoxLjU7IiB4MT0iNjM4IiB4Mj0iNzU3IiB5MT0iMjgxLjY0NDQiIHkyPSIyODEuNjQ0NCIvPjx0ZXh0IGZpbGw9IiMwMDAwMDAiIGZvbnQtZmFtaWx5PSJzYW5zLXNlcmlmIiBmb250LXNpemU9IjE0IiBmb250LXdlaWdodD0iYm9sZCIgbGVuZ3RoQWRqdXN0PSJzcGFjaW5nIiB0ZXh0TGVuZ3RoPSIxMDYiIHg9IjY0MiIgeT0iMjc1Ljg5NDQiPlVzZXIgTWFuYWdlbWVudDwvdGV4dD48L2c+PCEtLWNsdXN0ZXIgQXBwb2ludG1lbnQgTWFuYWdlbWVudC0tPjxnIGlkPSJjbHVzdGVyX0FwcG9pbnRtZW50IE1hbmFnZW1lbnQiPjxwYXRoIGQ9Ik0xNTgsMTE3LjY2IEwzMTUsMTE3LjY2IEEzLjc1LDMuNzUgMCAwIDEgMzE3LjUsMTIwLjE2IEwzMjQuNSwxMzguNjQ0NCBMMzQ5LDEzOC42NDQ0IEEyLjUsMi41IDAgMCAxIDM1MS41LDE0MS4xNDQ0IEwzNTEuNSw0MTMuMTYgQTIuNSwyLjUgMCAwIDEgMzQ5LDQxNS42NiBMMTU4LDQxNS42NiBBMi41LDIuNSAwIDAgMSAxNTUuNSw0MTMuMTYgTDE1NS41LDEyMC4xNiBBMi41LDIuNSAwIDAgMSAxNTgsMTE3LjY2ICIgZmlsbD0ibm9uZSIgc3R5bGU9InN0cm9rZTojMDAwMDAwO3N0cm9rZS13aWR0aDoxLjU7Ii8+PGxpbmUgc3R5bGU9InN0cm9rZTojMDAwMDAwO3N0cm9rZS13aWR0aDoxLjU7IiB4MT0iMTU1LjUiIHgyPSIzMjQuNSIgeTE9IjEzOC42NDQ0IiB5Mj0iMTM4LjY0NDQiLz48dGV4dCBmaWxsPSIjMDAwMDAwIiBmb250LWZhbWlseT0ic2Fucy1zZXJpZiIgZm9udC1zaXplPSIxNCIgZm9udC13ZWlnaHQ9ImJvbGQiIGxlbmd0aEFkanVzdD0ic3BhY2luZyIgdGV4dExlbmd0aD0iMTU2IiB4PSIxNTkuNSIgeT0iMTMyLjg5NDQiPkFwcG9pbnRtZW50IE1hbmFnZW1lbnQ8L3RleHQ+PC9nPjwhLS1jbHVzdGVyIFByZXNjcmlwdGlvbiBNYW5hZ2VtZW50LS0+PGcgaWQ9ImNsdXN0ZXJfUHJlc2NyaXB0aW9uIE1hbmFnZW1lbnQiPjxwYXRoIGQ9Ik0xNTIuNSw0MzkuNjYgTDMxNS41LDQzOS42NiBBMy43NSwzLjc1IDAgMCAxIDMxOCw0NDIuMTYgTDMyNSw0NjAuNjQ0NCBMMzU0LjUsNDYwLjY0NDQgQTIuNSwyLjUgMCAwIDEgMzU3LDQ2My4xNDQ0IEwzNTcsNTk3LjE2IEEyLjUsMi41IDAgMCAxIDM1NC41LDU5OS42NiBMMTUyLjUsNTk5LjY2IEEyLjUsMi41IDAgMCAxIDE1MCw1OTcuMTYgTDE1MCw0NDIuMTYgQTIuNSwyLjUgMCAwIDEgMTUyLjUsNDM5LjY2ICIgZmlsbD0ibm9uZSIgc3R5bGU9InN0cm9rZTojMDAwMDAwO3N0cm9rZS13aWR0aDoxLjU7Ii8+PGxpbmUgc3R5bGU9InN0cm9rZTojMDAwMDAwO3N0cm9rZS13aWR0aDoxLjU7IiB4MT0iMTUwIiB4Mj0iMzI1IiB5MT0iNDYwLjY0NDQiIHkyPSI0NjAuNjQ0NCIvPjx0ZXh0IGZpbGw9IiMwMDAwMDAiIGZvbnQtZmFtaWx5PSJzYW5zLXNlcmlmIiBmb250LXNpemU9IjE0IiBmb250LXdlaWdodD0iYm9sZCIgbGVuZ3RoQWRqdXN0PSJzcGFjaW5nIiB0ZXh0TGVuZ3RoPSIxNjIiIHg9IjE1NCIgeT0iNDU0Ljg5NDQiPlByZXNjcmlwdGlvbiBNYW5hZ2VtZW50PC90ZXh0PjwvZz48IS0tY2x1c3RlciBNZWRpY2luZSBPcmRlcmluZy0tPjxnIGlkPSJjbHVzdGVyX01lZGljaW5lIE9yZGVyaW5nIj48cGF0aCBkPSJNMTY0LDYyMy42NiBMMjg0LDYyMy42NiBBMy43NSwzLjc1IDAgMCAxIDI4Ni41LDYyNi4xNiBMMjkzLjUsNjQ0LjY0NDQgTDM0Myw2NDQuNjQ0NCBBMi41LDIuNSAwIDAgMSAzNDUuNSw2NDcuMTQ0NCBMMzQ1LjUsODM4LjE2IEEyLjUsMi41IDAgMCAxIDM0Myw4NDAuNjYgTDE2NCw4NDAuNjYgQTIuNSwyLjUgMCAwIDEgMTYxLjUsODM4LjE2IEwxNjEuNSw2MjYuMTYgQTIuNSwyLjUgMCAwIDEgMTY0LDYyMy42NiAiIGZpbGw9Im5vbmUiIHN0eWxlPSJzdHJva2U6IzAwMDAwMDtzdHJva2Utd2lkdGg6MS41OyIvPjxsaW5lIHN0eWxlPSJzdHJva2U6IzAwMDAwMDtzdHJva2Utd2lkdGg6MS41OyIgeDE9IjE2MS41IiB4Mj0iMjkzLjUiIHkxPSI2NDQuNjQ0NCIgeTI9IjY0NC42NDQ0Ii8+PHRleHQgZmlsbD0iIzAwMDAwMCIgZm9udC1mYW1pbHk9InNhbnMtc2VyaWYiIGZvbnQtc2l6ZT0iMTQiIGZvbnQtd2VpZ2h0PSJib2xkIiBsZW5ndGhBZGp1c3Q9InNwYWNpbmciIHRleHRMZW5ndGg9IjExOSIgeD0iMTY1LjUiIHk9IjYzOC44OTQ0Ij5NZWRpY2luZSBPcmRlcmluZzwvdGV4dD48L2c+PGcgaWQ9ImVsZW1fcmVnaXN0ZXIiPjxlbGxpcHNlIGN4PSI3MDUuMDgzMyIgY3k9IjQzMS43NTU2IiBmaWxsPSIjRjFGMUYxIiByeD0iNTEuMDgzMyIgcnk9IjEzLjU5NTYiIHN0eWxlPSJzdHJva2U6IzE4MTgxODtzdHJva2Utd2lkdGg6MC41OyIvPjx0ZXh0IGZpbGw9IiMwMDAwMDAiIGZvbnQtZmFtaWx5PSJzYW5zLXNlcmlmIiBmb250LXNpemU9IjE0IiBsZW5ndGhBZGp1c3Q9InNwYWNpbmciIHRleHRMZW5ndGg9IjU2IiB4PSI2NzcuMDgzMyIgeT0iNDM1LjQ5NzciPlJlZ2lzdGVyPC90ZXh0PjwvZz48ZyBpZD0iZWxlbV9sb2dpbiI+PGVsbGlwc2UgY3g9IjcwNS4yMzQiIGN5PSIzMDcuNzU1NiIgZmlsbD0iI0YxRjFGMSIgcng9IjM2LjIzNCIgcnk9IjEzLjU5NTYiIHN0eWxlPSJzdHJva2U6IzE4MTgxODtzdHJva2Utd2lkdGg6MC41OyIvPjx0ZXh0IGZpbGw9IiMwMDAwMDAiIGZvbnQtZmFtaWx5PSJzYW5zLXNlcmlmIiBmb250LXNpemU9IjE0IiBsZW5ndGhBZGp1c3Q9InNwYWNpbmciIHRleHRMZW5ndGg9IjM1IiB4PSI2ODcuNzM0IiB5PSIzMTEuNDk3NyI+TG9naW48L3RleHQ+PC9nPjxnIGlkPSJlbGVtX2xvZ291dCI+PGVsbGlwc2UgY3g9IjcwNS4xODM4IiBjeT0iMzY5Ljc1NTYiIGZpbGw9IiNGMUYxRjEiIHJ4PSI0MS4xODM4IiByeT0iMTMuNTk1NiIgc3R5bGU9InN0cm9rZTojMTgxODE4O3N0cm9rZS13aWR0aDowLjU7Ii8+PHRleHQgZmlsbD0iIzAwMDAwMCIgZm9udC1mYW1pbHk9InNhbnMtc2VyaWYiIGZvbnQtc2l6ZT0iMTQiIGxlbmd0aEFkanVzdD0ic3BhY2luZyIgdGV4dExlbmd0aD0iNDIiIHg9IjY4NC4xODM4IiB5PSIzNzMuNDk3NyI+TG9nb3V0PC90ZXh0PjwvZz48ZyBpZD0iZWxlbV9zZWFyY2hEb2N0b3JzIj48ZWxsaXBzZSBjeD0iMjUzLjU0NTYiIGN5PSIyNDAuNDY5MSIgZmlsbD0iI0YxRjFGMSIgcng9IjY5LjU0NTYiIHJ5PSIxNi4zMDkxIiBzdHlsZT0ic3Ryb2tlOiMxODE4MTg7c3Ryb2tlLXdpZHRoOjAuNTsiLz48dGV4dCBmaWxsPSIjMDAwMDAwIiBmb250LWZhbWlseT0ic2Fucy1zZXJpZiIgZm9udC1zaXplPSIxNCIgbGVuZ3RoQWRqdXN0PSJzcGFjaW5nIiB0ZXh0TGVuZ3RoPSI5OCIgeD0iMjA0LjU0NTYiIHk9IjI0NC4yMTEzIj5TZWFyY2ggRG9jdG9yczwvdGV4dD48L2c+PGcgaWQ9ImVsZW1fYm9va0FwcG9pbnRtZW50Ij48ZWxsaXBzZSBjeD0iMjUzLjM2NjgiIGN5PSIzMDkuNzMzNCIgZmlsbD0iI0YxRjFGMSIgcng9Ijc1Ljg2NjgiIHJ5PSIxNy41NzM0IiBzdHlsZT0ic3Ryb2tlOiMxODE4MTg7c3Ryb2tlLXdpZHRoOjAuNTsiLz48dGV4dCBmaWxsPSIjMDAwMDAwIiBmb250LWZhbWlseT0ic2Fucy1zZXJpZiIgZm9udC1zaXplPSIxNCIgbGVuZ3RoQWRqdXN0PSJzcGFjaW5nIiB0ZXh0TGVuZ3RoPSIxMTMiIHg9IjE5Ni44NjY4IiB5PSIzMTMuNDc1NSI+Qm9vayBBcHBvaW50bWVudDwvdGV4dD48L2c+PGcgaWQ9ImVsZW1fY2FuY2VsQXBwb2ludG1lbnQiPjxlbGxpcHNlIGN4PSIyNTMuNDUzIiBjeT0iMTY5LjQ1MDYiIGZpbGw9IiNGMUYxRjEiIHJ4PSI4MS45NTMiIHJ5PSIxOC43OTA2IiBzdHlsZT0ic3Ryb2tlOiMxODE4MTg7c3Ryb2tlLXdpZHRoOjAuNTsiLz48dGV4dCBmaWxsPSIjMDAwMDAwIiBmb250LWZhbWlseT0ic2Fucy1zZXJpZiIgZm9udC1zaXplPSIxNCIgbGVuZ3RoQWRqdXN0PSJzcGFjaW5nIiB0ZXh0TGVuZ3RoPSIxMjciIHg9IjE4OS45NTMiIHk9IjE3My4xOTI4Ij5DYW5jZWwgQXBwb2ludG1lbnQ8L3RleHQ+PC9nPjxnIGlkPSJlbGVtX3ZpZXdBcHBvaW50bWVudHMiPjxlbGxpcHNlIGN4PSIyNTMuMzI1NCIgY3k9IjM4MC40MjUxIiBmaWxsPSIjRjFGMUYxIiByeD0iNzkuMzI1NCIgcnk9IjE4LjI2NTEiIHN0eWxlPSJzdHJva2U6IzE4MTgxODtzdHJva2Utd2lkdGg6MC41OyIvPjx0ZXh0IGZpbGw9IiMwMDAwMDAiIGZvbnQtZmFtaWx5PSJzYW5zLXNlcmlmIiBmb250LXNpemU9IjE0IiBsZW5ndGhBZGp1c3Q9InNwYWNpbmciIHRleHRMZW5ndGg9IjEyMSIgeD0iMTkyLjgyNTQiIHk9IjM4NC4xNjczIj5WaWV3IEFwcG9pbnRtZW50czwvdGV4dD48L2c+PGcgaWQ9ImVsZW1fcmVxdWVzdFByZXNjcmlwdGlvbiI+PGVsbGlwc2UgY3g9IjI1My43MzA5IiBjeT0iNDkyLjYwNjIiIGZpbGw9IiNGMUYxRjEiIHJ4PSI4Ny43MzA5IiByeT0iMTkuOTQ2MiIgc3R5bGU9InN0cm9rZTojMTgxODE4O3N0cm9rZS13aWR0aDowLjU7Ii8+PHRleHQgZmlsbD0iIzAwMDAwMCIgZm9udC1mYW1pbHk9InNhbnMtc2VyaWYiIGZvbnQtc2l6ZT0iMTQiIGxlbmd0aEFkanVzdD0ic3BhY2luZyIgdGV4dExlbmd0aD0iMTQwIiB4PSIxODMuNzMwOSIgeT0iNDk2LjM0ODQiPlJlcXVlc3QgUHJlc2NyaXB0aW9uPC90ZXh0PjwvZz48ZyBpZD0iZWxlbV92aWV3UHJlc2NyaXB0aW9uIj48ZWxsaXBzZSBjeD0iMjUzLjM5MDIiIGN5PSI1NjUuODM4IiBmaWxsPSIjRjFGMUYxIiByeD0iNzguODkwMiIgcnk9IjE4LjE3OCIgc3R5bGU9InN0cm9rZTojMTgxODE4O3N0cm9rZS13aWR0aDowLjU7Ii8+PHRleHQgZmlsbD0iIzAwMDAwMCIgZm9udC1mYW1pbHk9InNhbnMtc2VyaWYiIGZvbnQtc2l6ZT0iMTQiIGxlbmd0aEFkanVzdD0ic3BhY2luZyIgdGV4dExlbmd0aD0iMTIwIiB4PSIxOTMuMzkwMiIgeT0iNTY5LjU4MDIiPlZpZXcgUHJlc2NyaXB0aW9uPC90ZXh0PjwvZz48ZyBpZD0iZWxlbV9icm93c2VNZWRpY2luZXMiPjxlbGxpcHNlIGN4PSIyNTMuMzY2OCIgY3k9IjY3NC43MzM0IiBmaWxsPSIjRjFGMUYxIiByeD0iNzUuODY2OCIgcnk9IjE3LjU3MzQiIHN0eWxlPSJzdHJva2U6IzE4MTgxODtzdHJva2Utd2lkdGg6MC41OyIvPjx0ZXh0IGZpbGw9IiMwMDAwMDAiIGZvbnQtZmFtaWx5PSJzYW5zLXNlcmlmIiBmb250LXNpemU9IjE0IiBsZW5ndGhBZGp1c3Q9InNwYWNpbmciIHRleHRMZW5ndGg9IjExMyIgeD0iMTk2Ljg2NjgiIHk9IjY3OC40NzU1Ij5Ccm93c2UgTWVkaWNpbmVzPC90ZXh0PjwvZz48ZyBpZD0iZWxlbV9vcmRlck1lZGljaW5lIj48ZWxsaXBzZSBjeD0iMjUzLjU0NTYiIGN5PSI3NDMuNDY5MSIgZmlsbD0iI0YxRjFGMSIgcng9IjY5LjU0NTYiIHJ5PSIxNi4zMDkxIiBzdHlsZT0ic3Ryb2tlOiMxODE4MTg7c3Ryb2tlLXdpZHRoOjAuNTsiLz48dGV4dCBmaWxsPSIjMDAwMDAwIiBmb250LWZhbWlseT0ic2Fucy1zZXJpZiIgZm9udC1zaXplPSIxNCIgbGVuZ3RoQWRqdXN0PSJzcGFjaW5nIiB0ZXh0TGVuZ3RoPSI5OCIgeD0iMjA0LjU0NTYiIHk9Ijc0Ny4yMTEzIj5PcmRlciBNZWRpY2luZTwvdGV4dD48L2c+PGcgaWQ9ImVsZW1fdHJhY2tPcmRlciI+PGVsbGlwc2UgY3g9IjI1My42Njg1IiBjeT0iODA5Ljc5MzciIGZpbGw9IiNGMUYxRjEiIHJ4PSI2MS4xNjg1IiByeT0iMTQuNjMzNyIgc3R5bGU9InN0cm9rZTojMTgxODE4O3N0cm9rZS13aWR0aDowLjU7Ii8+PHRleHQgZmlsbD0iIzAwMDAwMCIgZm9udC1mYW1pbHk9InNhbnMtc2VyaWYiIGZvbnQtc2l6ZT0iMTQiIGxlbmd0aEFkanVzdD0ic3BhY2luZyIgdGV4dExlbmd0aD0iNzciIHg9IjIxNS4xNjg1IiB5PSI4MTMuNTM1OSI+VHJhY2sgT3JkZXI8L3RleHQ+PC9nPjwhLS1lbnRpdHkgcGF0aWVudC0tPjxnIGlkPSJlbGVtX3BhdGllbnQiPjxlbGxpcHNlIGN4PSIzMC41IiBjeT0iMzg5LjY2IiBmaWxsPSIjRjFGMUYxIiByeD0iOCIgcnk9IjgiIHN0eWxlPSJzdHJva2U6IzE4MTgxODtzdHJva2Utd2lkdGg6MC41OyIvPjxwYXRoIGQ9Ik0zMC41LDM5Ny42NiBMMzAuNSw0MjQuNjYgTTE3LjUsNDA1LjY2IEw0My41LDQwNS42NiBNMzAuNSw0MjQuNjYgTDE3LjUsNDM5LjY2IE0zMC41LDQyNC42NiBMNDMuNSw0MzkuNjYgIiBmaWxsPSJub25lIiBzdHlsZT0ic3Ryb2tlOiMxODE4MTg7c3Ryb2tlLXdpZHRoOjAuNTsiLz48dGV4dCBmaWxsPSIjMDAwMDAwIiBmb250LWZhbWlseT0ic2Fucy1zZXJpZiIgZm9udC1zaXplPSIxNCIgbGVuZ3RoQWRqdXN0PSJzcGFjaW5nIiB0ZXh0TGVuZ3RoPSI0OSIgeD0iNiIgeT0iNDU0LjM5NDQiPlBhdGllbnQ8L3RleHQ+PC9nPjwhLS1lbnRpdHkgZG9jdG9yLS0+PGcgaWQ9ImVsZW1fZG9jdG9yIj48ZWxsaXBzZSBjeD0iNDgxLjUiIGN5PSIzODguNjYiIGZpbGw9IiNGMUYxRjEiIHJ4PSI4IiByeT0iOCIgc3R5bGU9InN0cm9rZTojMTgxODE4O3N0cm9rZS13aWR0aDowLjU7Ii8+PHBhdGggZD0iTTQ4MS41LDM5Ni42NiBMNDgxLjUsNDIzLjY2IE00NjguNSw0MDQuNjYgTDQ5NC41LDQwNC42NiBNNDgxLjUsNDIzLjY2IEw0NjguNSw0MzguNjYgTTQ4MS41LDQyMy42NiBMNDk0LjUsNDM4LjY2ICIgZmlsbD0ibm9uZSIgc3R5bGU9InN0cm9rZTojMTgxODE4O3N0cm9rZS13aWR0aDowLjU7Ii8+PHRleHQgZmlsbD0iIzAwMDAwMCIgZm9udC1mYW1pbHk9InNhbnMtc2VyaWYiIGZvbnQtc2l6ZT0iMTQiIGxlbmd0aEFkanVzdD0ic3BhY2luZyIgdGV4dExlbmd0aD0iNDIiIHg9IjQ2MC41IiB5PSI0NTMuMzk0NCI+RG9jdG9yPC90ZXh0PjwvZz48IS0tZW50aXR5IHBoYXJtYWN5LS0+PGcgaWQ9ImVsZW1fcGhhcm1hY3kiPjxlbGxpcHNlIGN4PSI0ODEuNSIgY3k9IjU2OC42NiIgZmlsbD0iI0YxRjFGMSIgcng9IjgiIHJ5PSI4IiBzdHlsZT0ic3Ryb2tlOiMxODE4MTg7c3Ryb2tlLXdpZHRoOjAuNTsiLz48cGF0aCBkPSJNNDgxLjUsNTc2LjY2IEw0ODEuNSw2MDMuNjYgTTQ2OC41LDU4NC42NiBMNDk0LjUsNTg0LjY2IE00ODEuNSw2MDMuNjYgTDQ2OC41LDYxOC42NiBNNDgxLjUsNjAzLjY2IEw0OTQuNSw2MTguNjYgIiBmaWxsPSJub25lIiBzdHlsZT0ic3Ryb2tlOiMxODE4MTg7c3Ryb2tlLXdpZHRoOjAuNTsiLz48dGV4dCBmaWxsPSIjMDAwMDAwIiBmb250LWZhbWlseT0ic2Fucy1zZXJpZiIgZm9udC1zaXplPSIxNCIgbGVuZ3RoQWRqdXN0PSJzcGFjaW5nIiB0ZXh0TGVuZ3RoPSI1NyIgeD0iNDUzIiB5PSI2MzMuMzk0NCI+UGhhcm1hY3k8L3RleHQ+PC9nPjwhLS1lbnRpdHkgc3lzdGVtLS0+PGcgaWQ9ImVsZW1fc3lzdGVtIj48ZWxsaXBzZSBjeD0iNDgxLjUiIGN5PSIyNzguNjYiIGZpbGw9IiNGMUYxRjEiIHJ4PSI4IiByeT0iOCIgc3R5bGU9InN0cm9rZTojMTgxODE4O3N0cm9rZS13aWR0aDowLjU7Ii8+PHBhdGggZD0iTTQ4MS41LDI4Ni42NiBMNDgxLjUsMzEzLjY2IE00NjguNSwyOTQuNjYgTDQ5NC41LDI5NC42NiBNNDgxLjUsMzEzLjY2IEw0NjguNSwzMjguNjYgTTQ4MS41LDMxMy42NiBMNDk0LjUsMzI4LjY2ICIgZmlsbD0ibm9uZSIgc3R5bGU9InN0cm9rZTojMTgxODE4O3N0cm9rZS13aWR0aDowLjU7Ii8+PHRleHQgZmlsbD0iIzAwMDAwMCIgZm9udC1mYW1pbHk9InNhbnMtc2VyaWYiIGZvbnQtc2l6ZT0iMTQiIGxlbmd0aEFkanVzdD0ic3BhY2luZyIgdGV4dExlbmd0aD0iNDMiIHg9IjQ2MCIgeT0iMzQzLjM5NDQiPlN5c3RlbTwvdGV4dD48L2c+PCEtLWxpbmsgcGF0aWVudCB0byBsb2dpbi0tPjxnIGlkPSJsaW5rX3BhdGllbnRfbG9naW4iPjxwYXRoIGQ9Ik0zMy4zMSwzODAuOTggQzM4LjYzLDMxNy40MiA1OS42LDE5MC4zNyAxNDIsMTM0LjY2IEMzMzIuMjgsNiA2MTcuNjY2OCwyMzMuMjMyNSA2ODUuMDg2OCwyOTEuMDkyNSAiIGZpbGw9Im5vbmUiIGlkPSJwYXRpZW50LXRvLWxvZ2luIiBzdHlsZT0ic3Ryb2tlOiMxODE4MTg7c3Ryb2tlLXdpZHRoOjEuMDsiLz48cG9seWdvbiBmaWxsPSIjMTgxODE4IiBwb2ludHM9IjY4OS42NCwyOTUsNjg1LjQxNTMsMjg2LjEwMzMsNjg1Ljg0NTcsMjkxLjc0MzcsNjgwLjIwNTIsMjkyLjE3NDEsNjg5LjY0LDI5NSIgc3R5bGU9InN0cm9rZTojMTgxODE4O3N0cm9rZS13aWR0aDoxLjA7Ii8+PC9nPjwhLS1saW5rIHBhdGllbnQgdG8gc2VhcmNoRG9jdG9ycy0tPjxnIGlkPSJsaW5rX3BhdGllbnRfc2VhcmNoRG9jdG9ycyI+PHBhdGggZD0iTTUwLjE0LDM4MS4xMiBDNjguNzMsMzQ3Ljc1IDEwMC40OCwzMDAuMzkgMTQyLDI3NC42NiBDMTU5LjQsMjYzLjg4IDE3NC42OTM5LDI1Ny44Nzc3IDE5My43NTM5LDI1Mi42NDc3ICIgZmlsbD0ibm9uZSIgaWQ9InBhdGllbnQtdG8tc2VhcmNoRG9jdG9ycyIgc3R5bGU9InN0cm9rZTojMTgxODE4O3N0cm9rZS13aWR0aDoxLjA7Ii8+PHBvbHlnb24gZmlsbD0iIzE4MTgxOCIgcG9pbnRzPSIxOTkuNTQsMjUxLjA2LDE4OS44MDI0LDI0OS41ODQxLDE5NC43MTgyLDI1Mi4zODMxLDE5MS45MTkzLDI1Ny4yOTksMTk5LjU0LDI1MS4wNiIgc3R5bGU9InN0cm9rZTojMTgxODE4O3N0cm9rZS13aWR0aDoxLjA7Ii8+PC9nPjwhLS1saW5rIHBhdGllbnQgdG8gYm9va0FwcG9pbnRtZW50LS0+PGcgaWQ9ImxpbmtfcGF0aWVudF9ib29rQXBwb2ludG1lbnQiPjxwYXRoIGQ9Ik01NS4yMywzOTUuOTkgQzY0LjE3LDM4OC4wNyA3NC42NywzNzkuNDggODUsMzcyLjY2IEMxMjAuNzgsMzQ5LjA0IDE2MC45MDE5LDMzNC4yNjY0IDE5NS41OTE5LDMyNC4xMDY0ICIgZmlsbD0ibm9uZSIgaWQ9InBhdGllbnQtdG8tYm9va0FwcG9pbnRtZW50IiBzdHlsZT0ic3Ryb2tlOiMxODE4MTg7c3Ryb2tlLXdpZHRoOjEuMDsiLz48cG9seWdvbiBmaWxsPSIjMTgxODE4IiBwb2ludHM9IjIwMS4zNSwzMjIuNDIsMTkxLjU4ODUsMzIxLjExMDksMTk2LjU1MTYsMzIzLjgyNTQsMTkzLjgzNzEsMzI4Ljc4ODQsMjAxLjM1LDMyMi40MiIgc3R5bGU9InN0cm9rZTojMTgxODE4O3N0cm9rZS13aWR0aDoxLjA7Ii8+PC9nPjwhLS1saW5rIHBhdGllbnQgdG8gdmlld0FwcG9pbnRtZW50cy0tPjxnIGlkPSJsaW5rX3BhdGllbnRfdmlld0FwcG9pbnRtZW50cyI+PHBhdGggZD0iTTU1LjI2LDQxMC42NyBDNjQuNDYsNDA3LjggNzUuMTQsNDA0Ljc3IDg1LDQwMi42NiBDMTE1LjY5LDM5Ni4xIDE0NC4wMzE3LDM5MS44ODY0IDE3My41NTE3LDM4OC4zODY0ICIgZmlsbD0ibm9uZSIgaWQ9InBhdGllbnQtdG8tdmlld0FwcG9pbnRtZW50cyIgc3R5bGU9InN0cm9rZTojMTgxODE4O3N0cm9rZS13aWR0aDoxLjA7Ii8+PHBvbHlnb24gZmlsbD0iIzE4MTgxOCIgcG9pbnRzPSIxNzkuNTEsMzg3LjY4LDE3MC4xMDE2LDM4NC43Njc1LDE3NC41NDQ4LDM4OC4yNjg3LDE3MS4wNDM2LDM5Mi43MTE4LDE3OS41MSwzODcuNjgiIHN0eWxlPSJzdHJva2U6IzE4MTgxODtzdHJva2Utd2lkdGg6MS4wOyIvPjwvZz48IS0tbGluayB2aWV3QXBwb2ludG1lbnRzIHRvIHBhdGllbnQtLT48ZyBpZD0ibGlua192aWV3QXBwb2ludG1lbnRzX3BhdGllbnQiPjxwYXRoIGQ9Ik0yMTcuMDksMzk3LjE5IEMxOTQsNDA3LjA0IDE2Mi44OCw0MTguNTggMTM0LDQyMy42NiBDMTEyLjU1LDQyNy40MyAxMDYuNzUsNDI0LjY3IDg1LDQyMy42NiBDNzUuMjIsNDIzLjIgNzAuNDMwMiw0MjIuODc3NyA2MS4xNDAyLDQyMS45NDc3ICIgZmlsbD0ibm9uZSIgaWQ9InZpZXdBcHBvaW50bWVudHMtdG8tcGF0aWVudCIgc3R5bGU9InN0cm9rZTojMTgxODE4O3N0cm9rZS13aWR0aDoxLjA7Ii8+PHBvbHlnb24gZmlsbD0iIzE4MTgxOCIgcG9pbnRzPSI1NS4xNyw0MjEuMzUsNjMuNzI2OCw0MjYuMjI2Niw2MC4xNDUxLDQyMS44NDgsNjQuNTIzNyw0MTguMjY2NCw1NS4xNyw0MjEuMzUiIHN0eWxlPSJzdHJva2U6IzE4MTgxODtzdHJva2Utd2lkdGg6MS4wOyIvPjx0ZXh0IGZpbGw9IiMwMDAwMDAiIGZvbnQtZmFtaWx5PSJzYW5zLXNlcmlmIiBmb250LXNpemU9IjEzIiBsZW5ndGhBZGp1c3Q9InNwYWNpbmciIHRleHRMZW5ndGg9IjQ3IiB4PSI4NiIgeT0iNDIxLjk0OTEiPkRpc3BsYXk8L3RleHQ+PC9nPjwhLS1saW5rIHBhdGllbnQgdG8gYnJvd3NlTWVkaWNpbmVzLS0+PGcgaWQ9ImxpbmtfcGF0aWVudF9icm93c2VNZWRpY2luZXMiPjxwYXRoIGQ9Ik00Ni40NSw0NTYuMzEgQzU2LjExLDQ3OC45MSA2OS43Miw1MDcuODEgODUsNTMxLjY2IEMxMDYuMjgsNTY0Ljg2IDExMi43NCw1NzMuMjIgMTQyLDU5OS42NiBDMTY3LjYzLDYyMi44MiAxOTUuNzE4LDY0MS4zMzgyIDIxOS4wMTgsNjU1LjM0ODIgIiBmaWxsPSJub25lIiBpZD0icGF0aWVudC10by1icm93c2VNZWRpY2luZXMiIHN0eWxlPSJzdHJva2U6IzE4MTgxODtzdHJva2Utd2lkdGg6MS4wOyIvPjxwb2x5Z29uIGZpbGw9IiMxODE4MTgiIHBvaW50cz0iMjI0LjE2LDY1OC40NCwyMTguNTA4Miw2NTAuMzc0MiwyMTkuODc1LDY1NS44NjM1LDIxNC4zODU3LDY1Ny4yMzAzLDIyNC4xNiw2NTguNDQiIHN0eWxlPSJzdHJva2U6IzE4MTgxODtzdHJva2Utd2lkdGg6MS4wOyIvPjwvZz48IS0tbGluayBwYXRpZW50IHRvIG9yZGVyTWVkaWNpbmUtLT48ZyBpZD0ibGlua19wYXRpZW50X29yZGVyTWVkaWNpbmUiPjxwYXRoIGQ9Ik0zNC4zMiw0NTYuMzIgQzQxLjE2LDUxOS4xNCA2NC4zMiw2NDQuODEgMTQyLDcwOS42NiBDMTU2Ljc5LDcyMi4wMSAxNzAuMjQzNiw3MjguMjkzMyAxODguNTEzNiw3MzMuMzAzMyAiIGZpbGw9Im5vbmUiIGlkPSJwYXRpZW50LXRvLW9yZGVyTWVkaWNpbmUiIHN0eWxlPSJzdHJva2U6IzE4MTgxODtzdHJva2Utd2lkdGg6MS4wOyIvPjxwb2x5Z29uIGZpbGw9IiMxODE4MTgiIHBvaW50cz0iMTk0LjMsNzM0Ljg5LDE4Ni42NzgzLDcyOC42NTIzLDE4OS40NzgsNzMzLjU2NzcsMTg0LjU2MjYsNzM2LjM2NzUsMTk0LjMsNzM0Ljg5IiBzdHlsZT0ic3Ryb2tlOiMxODE4MTg7c3Ryb2tlLXdpZHRoOjEuMDsiLz48L2c+PCEtLWxpbmsgcGF0aWVudCB0byByZXF1ZXN0UHJlc2NyaXB0aW9uLS0+PGcgaWQ9ImxpbmtfcGF0aWVudF9yZXF1ZXN0UHJlc2NyaXB0aW9uIj48cGF0aCBkPSJNNTUuMTUsNDI2LjU4IEM5MC4zNCw0MzguMzYgMTUxLjU4MDUsNDU4Ljg2NDkgMTk3LjY2MDUsNDc0LjI5NDkgIiBmaWxsPSJub25lIiBpZD0icGF0aWVudC10by1yZXF1ZXN0UHJlc2NyaXB0aW9uIiBzdHlsZT0ic3Ryb2tlOiMxODE4MTg7c3Ryb2tlLXdpZHRoOjEuMDsiLz48cG9seWdvbiBmaWxsPSIjMTgxODE4IiBwb2ludHM9IjIwMy4zNSw0NzYuMiwxOTYuMDg1OCw0NjkuNTQ5MywxOTguNjA4Nyw0NzQuNjEyNCwxOTMuNTQ1Nyw0NzcuMTM1MywyMDMuMzUsNDc2LjIiIHN0eWxlPSJzdHJva2U6IzE4MTgxODtzdHJva2Utd2lkdGg6MS4wOyIvPjwvZz48IS0tbGluayBsb2dpbiB0byBzeXN0ZW0tLT48ZyBpZD0ibGlua19sb2dpbl9zeXN0ZW0iPjxwYXRoIGQ9Ik02NjguOTYsMzA3LjY2IEM2MjIuMzMsMzA3LjY2IDU0Ny4zNSwzMDcuNjYgNTA5LjM0LDMwNy42NiAiIGZpbGw9Im5vbmUiIGlkPSJsb2dpbi10by1zeXN0ZW0iIHN0eWxlPSJzdHJva2U6IzE4MTgxODtzdHJva2Utd2lkdGg6MS4wOyIvPjxwb2x5Z29uIGZpbGw9IiMxODE4MTgiIHBvaW50cz0iNTAzLjM0LDMwNy42Niw1MTIuMzQsMzExLjY2LDUwOC4zNCwzMDcuNjYsNTEyLjM0LDMwMy42Niw1MDMuMzQsMzA3LjY2IiBzdHlsZT0ic3Ryb2tlOiMxODE4MTg7c3Ryb2tlLXdpZHRoOjEuMDsiLz48dGV4dCBmaWxsPSIjMDAwMDAwIiBmb250LWZhbWlseT0ic2Fucy1zZXJpZiIgZm9udC1zaXplPSIxMyIgbGVuZ3RoQWRqdXN0PSJzcGFjaW5nIiB0ZXh0TGVuZ3RoPSI4MCIgeD0iNTQxIiB5PSIzMDUuOTQ5MSI+QXV0aGVudGljYXRlPC90ZXh0PjwvZz48IS0tbGluayBzeXN0ZW0gdG8gcmVnaXN0ZXItLT48ZyBpZD0ibGlua19zeXN0ZW1fcmVnaXN0ZXIiPjxwYXRoIGQ9Ik01MDMuMjQsMzI2LjQyIEM1MTMuODMsMzM1LjUyIDUyNy4xNiwzNDYuMjcgNTQwLDM1NC42NiBDNTg0LjEsMzgzLjQ4IDYzNS4xMDk4LDQwNS4zNzA3IDY2OC45Njk4LDQxOC41NzA3ICIgZmlsbD0ibm9uZSIgaWQ9InN5c3RlbS10by1yZWdpc3RlciIgc3R5bGU9InN0cm9rZTojMTgxODE4O3N0cm9rZS13aWR0aDoxLjA7Ii8+PHBvbHlnb24gZmlsbD0iIzE4MTgxOCIgcG9pbnRzPSI2NzQuNTYsNDIwLjc1LDY2Ny42Mjc1LDQxMy43NTQyLDY2OS45MDE1LDQxOC45MzM5LDY2NC43MjE4LDQyMS4yMDc5LDY3NC41Niw0MjAuNzUiIHN0eWxlPSJzdHJva2U6IzE4MTgxODtzdHJva2Utd2lkdGg6MS4wOyIvPjwvZz48IS0tbGluayBzeXN0ZW0gdG8gbG9nb3V0LS0+PGcgaWQ9Imxpbmtfc3lzdGVtX2xvZ291dCI+PHBhdGggZD0iTTUwMy4zNCwzMTMuNDkgQzU0Mi41NCwzMjQuNDcgNjIxLjY0MTgsMzQ2LjYxMzkgNjY3LjQ0MTgsMzU5LjQyMzkgIiBmaWxsPSJub25lIiBpZD0ic3lzdGVtLXRvLWxvZ291dCIgc3R5bGU9InN0cm9rZTojMTgxODE4O3N0cm9rZS13aWR0aDoxLjA7Ii8+PHBvbHlnb24gZmlsbD0iIzE4MTgxOCIgcG9pbnRzPSI2NzMuMjIsMzYxLjA0LDY2NS42MzAxLDM1NC43NjM2LDY2OC40MDQ4LDM1OS42OTMyLDY2My40NzUyLDM2Mi40Njc5LDY3My4yMiwzNjEuMDQiIHN0eWxlPSJzdHJva2U6IzE4MTgxODtzdHJva2Utd2lkdGg6MS4wOyIvPjwvZz48IS0tbGluayBzZWFyY2hEb2N0b3JzIHRvIGRvY3Rvci0tPjxnIGlkPSJsaW5rX3NlYXJjaERvY3RvcnNfZG9jdG9yIj48cGF0aCBkPSJNMzA1Ljg5LDI1MS41MiBDMzI1LjE5LDI1Ni44NSAzNDYuODMsMjY0LjM4IDM2NSwyNzQuNjYgQzQwOC4yLDI5OS4wOSA0MzguNTEyLDM0MS40MTQzIDQ1OC4wMzIsMzc0Ljk1NDMgIiBmaWxsPSJub25lIiBpZD0ic2VhcmNoRG9jdG9ycy10by1kb2N0b3IiIHN0eWxlPSJzdHJva2U6IzE4MTgxODtzdHJva2Utd2lkdGg6MS4wOyIvPjxwb2x5Z29uIGZpbGw9IiMxODE4MTgiIHBvaW50cz0iNDYxLjA1LDM4MC4xNCw0NTkuOTgwMSwzNzAuMzQ5NCw0NTguNTM1LDM3NS44MTg2LDQ1My4wNjU4LDM3NC4zNzM1LDQ2MS4wNSwzODAuMTQiIHN0eWxlPSJzdHJva2U6IzE4MTgxODtzdHJva2Utd2lkdGg6MS4wOyIvPjx0ZXh0IGZpbGw9IiMwMDAwMDAiIGZvbnQtZmFtaWx5PSJzYW5zLXNlcmlmIiBmb250LXNpemU9IjEzIiBsZW5ndGhBZGp1c3Q9InNwYWNpbmciIHRleHRMZW5ndGg9IjQ4IiB4PSIzNzQiIHk9IjI3OC45NDkxIj5SZXF1ZXN0PC90ZXh0PjwvZz48IS0tbGluayBib29rQXBwb2ludG1lbnQgdG8gZG9jdG9yLS0+PGcgaWQ9ImxpbmtfYm9va0FwcG9pbnRtZW50X2RvY3RvciI+PHBhdGggZD0iTTMwNC43NiwzMjIuNjEgQzMyNC4wMiwzMjguMzMgMzQ1LjkzLDMzNS43OSAzNjUsMzQ0LjY2IEM0MDAuMjgsMzYxLjA2IDQzMi44ODk0LDM4Mi45MDYxIDQ1NS4yNjk0LDM5OS4wMDYxICIgZmlsbD0ibm9uZSIgaWQ9ImJvb2tBcHBvaW50bWVudC10by1kb2N0b3IiIHN0eWxlPSJzdHJva2U6IzE4MTgxODtzdHJva2Utd2lkdGg6MS4wOyIvPjxwb2x5Z29uIGZpbGw9IiMxODE4MTgiIHBvaW50cz0iNDYwLjE0LDQwMi41MSw0NTUuMTcsMzk0LjAwNzEsNDU2LjA4MTIsMzk5LjU5MDEsNDUwLjQ5ODIsNDAwLjUwMTMsNDYwLjE0LDQwMi41MSIgc3R5bGU9InN0cm9rZTojMTgxODE4O3N0cm9rZS13aWR0aDoxLjA7Ii8+PHRleHQgZmlsbD0iIzAwMDAwMCIgZm9udC1mYW1pbHk9InNhbnMtc2VyaWYiIGZvbnQtc2l6ZT0iMTMiIGxlbmd0aEFkanVzdD0ic3BhY2luZyIgdGV4dExlbmd0aD0iNDgiIHg9IjM3NCIgeT0iMzQ3Ljk0OTEiPlJlcXVlc3Q8L3RleHQ+PC9nPjwhLS1saW5rIGNhbmNlbEFwcG9pbnRtZW50IHRvIHN5c3RlbS0tPjxnIGlkPSJsaW5rX2NhbmNlbEFwcG9pbnRtZW50X3N5c3RlbSI+PHBhdGggZD0iTTMyMC4zMywxODAuNzYgQzM1My41NCwxODguOCAzOTMuMDIsMjAyLjMzIDQyMywyMjQuNjYgQzQzOC44OSwyMzYuNDkgNDQ4Ljg0MzYsMjQ4LjkxNjcgNDU4LjQ4MzYsMjY0Ljg0NjcgIiBmaWxsPSJub25lIiBpZD0iY2FuY2VsQXBwb2ludG1lbnQtdG8tc3lzdGVtIiBzdHlsZT0ic3Ryb2tlOiMxODE4MTg7c3Ryb2tlLXdpZHRoOjEuMDsiLz48cG9seWdvbiBmaWxsPSIjMTgxODE4IiBwb2ludHM9IjQ2MS41OSwyNjkuOTgsNDYwLjM1MjYsMjYwLjIwOTIsNDU5LjAwMTMsMjY1LjcwMjMsNDUzLjUwODMsMjY0LjM1MSw0NjEuNTksMjY5Ljk4IiBzdHlsZT0ic3Ryb2tlOiMxODE4MTg7c3Ryb2tlLXdpZHRoOjEuMDsiLz48dGV4dCBmaWxsPSIjMDAwMDAwIiBmb250LWZhbWlseT0ic2Fucy1zZXJpZiIgZm9udC1zaXplPSIxMyIgbGVuZ3RoQWRqdXN0PSJzcGFjaW5nIiB0ZXh0TGVuZ3RoPSI0OCIgeD0iMzc0IiB5PSIxOTcuOTQ5MSI+UmVxdWVzdDwvdGV4dD48L2c+PCEtLWxpbmsgcmVxdWVzdFByZXNjcmlwdGlvbiB0byBkb2N0b3ItLT48ZyBpZD0ibGlua19yZXF1ZXN0UHJlc2NyaXB0aW9uX2RvY3RvciI+PHBhdGggZD0iTTMwMy44Miw0NzYuMjkgQzM1Mi43OCw0NjAuMDQgNDE5LjczNTEsNDM3LjgxOSA0NTQuNjQ1MSw0MjYuMjM5ICIgZmlsbD0ibm9uZSIgaWQ9InJlcXVlc3RQcmVzY3JpcHRpb24tdG8tZG9jdG9yIiBzdHlsZT0ic3Ryb2tlOiMxODE4MTg7c3Ryb2tlLXdpZHRoOjEuMDsiLz48cG9seWdvbiBmaWxsPSIjMTgxODE4IiBwb2ludHM9IjQ2MC4zNCw0MjQuMzUsNDUwLjUzODMsNDIzLjM4Nyw0NTUuNTk0Myw0MjUuOTI0Miw0NTMuMDU3MSw0MzAuOTgwMSw0NjAuMzQsNDI0LjM1IiBzdHlsZT0ic3Ryb2tlOiMxODE4MTg7c3Ryb2tlLXdpZHRoOjEuMDsiLz48dGV4dCBmaWxsPSIjMDAwMDAwIiBmb250LWZhbWlseT0ic2Fucy1zZXJpZiIgZm9udC1zaXplPSIxMyIgbGVuZ3RoQWRqdXN0PSJzcGFjaW5nIiB0ZXh0TGVuZ3RoPSI0OCIgeD0iMzc0IiB5PSI0MzYuOTQ5MSI+UmVxdWVzdDwvdGV4dD48L2c+PCEtLWxpbmsgdmlld1ByZXNjcmlwdGlvbiB0byBwYXRpZW50LS0+PGcgaWQ9Imxpbmtfdmlld1ByZXNjcmlwdGlvbl9wYXRpZW50Ij48cGF0aCBkPSJNMTk3LjI3LDU1MyBDMTc4LjkxLDU0Ny40MyAxNTguODYsNTM5LjggMTQyLDUyOS42NiBDMTA3LjI4LDUwOC43OSA3OS4zNDY0LDQ3OS4yNDggNTguODg2NCw0NTQuMzE4ICIgZmlsbD0ibm9uZSIgaWQ9InZpZXdQcmVzY3JpcHRpb24tdG8tcGF0aWVudCIgc3R5bGU9InN0cm9rZTojMTgxODE4O3N0cm9rZS13aWR0aDoxLjA7Ii8+PHBvbHlnb24gZmlsbD0iIzE4MTgxOCIgcG9pbnRzPSI1NS4wOCw0NDkuNjgsNTcuNjk3Niw0NTkuMTc0Niw1OC4yNTIsNDUzLjU0NSw2My44ODE2LDQ1NC4wOTk0LDU1LjA4LDQ0OS42OCIgc3R5bGU9InN0cm9rZTojMTgxODE4O3N0cm9rZS13aWR0aDoxLjA7Ii8+PHRleHQgZmlsbD0iIzAwMDAwMCIgZm9udC1mYW1pbHk9InNhbnMtc2VyaWYiIGZvbnQtc2l6ZT0iMTMiIGxlbmd0aEFkanVzdD0ic3BhY2luZyIgdGV4dExlbmd0aD0iNDciIHg9Ijg2IiB5PSI0ODIuOTQ5MSI+RGlzcGxheTwvdGV4dD48L2c+PCEtLWxpbmsgcGhhcm1hY3kgdG8gbG9naW4tLT48ZyBpZD0ibGlua19waGFybWFjeV9sb2dpbiI+PHBhdGggZD0iTTQ5NC40LDU1OS45MyBDNTEzLjkyLDUwMy45MiA1NTcuOTUsMzk4LjkxIDYzMCwzMzguNjYgQzY0My4wNCwzMjcuNzYgNjU0Ljc2MTQsMzIyLjExNzggNjY5LjQzMTQsMzE3LjE5NzggIiBmaWxsPSJub25lIiBpZD0icGhhcm1hY3ktdG8tbG9naW4iIHN0eWxlPSJzdHJva2U6IzE4MTgxODtzdHJva2Utd2lkdGg6MS4wOyIvPjxwb2x5Z29uIGZpbGw9IiMxODE4MTgiIHBvaW50cz0iNjc1LjEyLDMxNS4yOSw2NjUuMzE1MiwzMTQuMzU5Myw2NzAuMzc5NSwzMTYuODc5OSw2NjcuODU5LDMyMS45NDQxLDY3NS4xMiwzMTUuMjkiIHN0eWxlPSJzdHJva2U6IzE4MTgxODtzdHJva2Utd2lkdGg6MS4wOyIvPjwvZz48IS0tbGluayBwaGFybWFjeSB0byByZWdpc3Rlci0tPjxnIGlkPSJsaW5rX3BoYXJtYWN5X3JlZ2lzdGVyIj48cGF0aCBkPSJNNTEwLjE1LDU4OC40MyBDNTM5LjgsNTc3LjY2IDU4Ny4yOCw1NTcuNzkgNjIyLDUzMC42NiBDNjU0LjE4LDUwNS41MSA2NzguOTgzOSw0NzAuNzYzMiA2OTIuMzgzOSw0NTAuMTEzMiAiIGZpbGw9Im5vbmUiIGlkPSJwaGFybWFjeS10by1yZWdpc3RlciIgc3R5bGU9InN0cm9rZTojMTgxODE4O3N0cm9rZS13aWR0aDoxLjA7Ii8+PHBvbHlnb24gZmlsbD0iIzE4MTgxOCIgcG9pbnRzPSI2OTUuNjUsNDQ1LjA4LDY4Ny4zOTU0LDQ1MC40NTI0LDY5Mi45MjgzLDQ0OS4yNzQzLDY5NC4xMDYzLDQ1NC44MDcxLDY5NS42NSw0NDUuMDgiIHN0eWxlPSJzdHJva2U6IzE4MTgxODtzdHJva2Utd2lkdGg6MS4wOyIvPjwvZz48IS0tbGluayBwaGFybWFjeSB0byBsb2dvdXQtLT48ZyBpZD0ibGlua19waGFybWFjeV9sb2dvdXQiPjxwYXRoIGQ9Ik01MDguNzQsNTU5LjkgQzUxNy44Miw1NDguNCA1MjguNiw1MzYuMjcgNTQwLDUyNi42NiBDNTcxLjk0LDQ5OS43MiA1OTkuMTEsNTE1LjYyIDYyMiw0ODAuNjYgQzY0MS41Nyw0NTAuNzYgNjA4Ljc1LDQyOS4zOSA2MzAsNDAwLjY2IEM2MzkuMjgsMzg4LjEyIDY0OC44NzMzLDM4Mi40MTAxIDY2My4xNzMzLDM3Ny45NDAxICIgZmlsbD0ibm9uZSIgaWQ9InBoYXJtYWN5LXRvLWxvZ291dCIgc3R5bGU9InN0cm9rZTojMTgxODE4O3N0cm9rZS13aWR0aDoxLjA7Ii8+PHBvbHlnb24gZmlsbD0iIzE4MTgxOCIgcG9pbnRzPSI2NjguOSwzNzYuMTUsNjU5LjExNjUsMzc1LjAxNzMsNjY0LjEyNzcsMzc3LjY0MTgsNjYxLjUwMzMsMzgyLjY1Myw2NjguOSwzNzYuMTUiIHN0eWxlPSJzdHJva2U6IzE4MTgxODtzdHJva2Utd2lkdGg6MS4wOyIvPjwvZz48IS0tbGluayBicm93c2VNZWRpY2luZXMgdG8gcGhhcm1hY3ktLT48ZyBpZD0ibGlua19icm93c2VNZWRpY2luZXNfcGhhcm1hY3kiPjxwYXRoIGQ9Ik0yOTYuNzQsNjYwLjI3IEMzNDIuMzUsNjQ0LjczIDQwOC4wMjA1LDYyMi4zNTQ5IDQ0Ny4wMzA1LDYwOS4wNjQ5ICIgZmlsbD0ibm9uZSIgaWQ9ImJyb3dzZU1lZGljaW5lcy10by1waGFybWFjeSIgc3R5bGU9InN0cm9rZTojMTgxODE4O3N0cm9rZS13aWR0aDoxLjA7Ii8+PHBvbHlnb24gZmlsbD0iIzE4MTgxOCIgcG9pbnRzPSI0NTIuNzEsNjA3LjEzLDQ0Mi45MDA5LDYwNi4yNDYsNDQ3Ljk3NzEsNjA4Ljc0MjQsNDQ1LjQ4MDcsNjEzLjgxODYsNDUyLjcxLDYwNy4xMyIgc3R5bGU9InN0cm9rZTojMTgxODE4O3N0cm9rZS13aWR0aDoxLjA7Ii8+PHRleHQgZmlsbD0iIzAwMDAwMCIgZm9udC1mYW1pbHk9InNhbnMtc2VyaWYiIGZvbnQtc2l6ZT0iMTMiIGxlbmd0aEFkanVzdD0ic3BhY2luZyIgdGV4dExlbmd0aD0iNDgiIHg9IjM3NCIgeT0iNjE1Ljk0OTEiPlJlcXVlc3Q8L3RleHQ+PC9nPjwhLS1saW5rIG9yZGVyTWVkaWNpbmUgdG8gcGhhcm1hY3ktLT48ZyBpZD0ibGlua19vcmRlck1lZGljaW5lX3BoYXJtYWN5Ij48cGF0aCBkPSJNMzA2LjIyLDczMi44MiBDMzI1LjQ1LDcyNy41IDM0Ni45Nyw3MTkuOTcgMzY1LDcwOS42NiBDMzk5LjU1LDY4OS45IDQyNy41MTI4LDY2MS45ODQ4IDQ0OC45ODI4LDYzNy4wNzQ4ICIgZmlsbD0ibm9uZSIgaWQ9Im9yZGVyTWVkaWNpbmUtdG8tcGhhcm1hY3kiIHN0eWxlPSJzdHJva2U6IzE4MTgxODtzdHJva2Utd2lkdGg6MS4wOyIvPjxwb2x5Z29uIGZpbGw9IiMxODE4MTgiIHBvaW50cz0iNDUyLjksNjMyLjUzLDQ0My45OTQzLDYzNi43MzU4LDQ0OS42MzU3LDYzNi4zMTc0LDQ1MC4wNTQxLDY0MS45NTg3LDQ1Mi45LDYzMi41MyIgc3R5bGU9InN0cm9rZTojMTgxODE4O3N0cm9rZS13aWR0aDoxLjA7Ii8+PHRleHQgZmlsbD0iIzAwMDAwMCIgZm9udC1mYW1pbHk9InNhbnMtc2VyaWYiIGZvbnQtc2l6ZT0iMTMiIGxlbmd0aEFkanVzdD0ic3BhY2luZyIgdGV4dExlbmd0aD0iNDgiIHg9IjM3NCIgeT0iNjY0Ljk0OTEiPlJlcXVlc3Q8L3RleHQ+PC9nPjwhLS1saW5rIHRyYWNrT3JkZXIgdG8gcGhhcm1hY3ktLT48ZyBpZD0ibGlua190cmFja09yZGVyX3BoYXJtYWN5Ij48cGF0aCBkPSJNMzAyLjAzLDgwMC44NCBDMzIyLjI2LDc5NS44NiAzNDUuNjEsNzg4LjQxIDM2NSw3NzcuNjYgQzM5NS4yOCw3NjAuODcgNDAyLjU3LDc1My42MSA0MjMsNzI1LjY2IEM0NDMuMTksNjk4LjAyIDQ1Ni40ODU4LDY2Ny44MDc0IDQ2Ni4yMjU4LDY0MS4wNzc0ICIgZmlsbD0ibm9uZSIgaWQ9InRyYWNrT3JkZXItdG8tcGhhcm1hY3kiIHN0eWxlPSJzdHJva2U6IzE4MTgxODtzdHJva2Utd2lkdGg6MS4wOyIvPjxwb2x5Z29uIGZpbGw9IiMxODE4MTgiIHBvaW50cz0iNDY4LjI4LDYzNS40NCw0NjEuNDQwNSw2NDIuNTI2Nyw0NjYuNTY4Miw2NDAuMTM3OCw0NjguOTU3LDY0NS4yNjU2LDQ2OC4yOCw2MzUuNDQiIHN0eWxlPSJzdHJva2U6IzE4MTgxODtzdHJva2Utd2lkdGg6MS4wOyIvPjx0ZXh0IGZpbGw9IiMwMDAwMDAiIGZvbnQtZmFtaWx5PSJzYW5zLXNlcmlmIiBmb250LXNpemU9IjEzIiBsZW5ndGhBZGp1c3Q9InNwYWNpbmciIHRleHRMZW5ndGg9IjQ4IiB4PSIzNzQiIHk9IjcyMy45NDkxIj5SZXF1ZXN0PC90ZXh0PjwvZz48IS0tU1JDPVtWTEhEUm04WDRCdHBBb1JVX0dDVWNqSHdoQWNmUlUtOHF2TWVvblFtblpKenh1TTFyTzVyVXpoWGxKVFZwQjA3X0ZKVzNMWlR4M25paktOYmpNYzVhQ2VSMm9sZkRST1VmOENrY1BiTzZGZTRWNGpNaHp6OVV2SmdHV3hQcGpKd3VabVU4LTc4NGdBSlFZeVJYQ2N4R21qQnNPUjNDUUlPbTh5MEUzYktxV05zNUhpVDdFbWEtamZ5dTg5ZHEtWU1zNEVxQWlnU1ZDeTVLX29vbDh6VFB0SmhPeXhuejZrS0xrcm9tdXYyRU84b21oTHBPX1IwZWY5dzRxMjZTVnNKUjFLVTFYd0F1MTZWM3VyZHhmNUEtV3VlMXVpLUxuUVRpaGdCYV90bGRoekV3M25tVFJ2cDhaVy1BNlpXNTBpZ0Y3WDFJem5nZkxrNDV4ajVnemtjQWNMa3BKYnlVcmJnU0tGVzVVRHcyZEVMYXpmNGc0VXV6aXM2QWI5WTRsZnVmY0NnQ0l0eVRGZ0dqdWFadlUwdkttLVBTdUZQNTh2TEx2bWhVLTNDbFA0OGdaVkxjVHhRMzF2RlZYVHlqOThVWFNYbTJmM1Y0U0ZvMm41NWJ5SWFEbnhZdkhxSExSbHRIT0NyQmNsaFBWTnJhQWZsVFdPQnhSZzNsMFhuZi1WeFVVbEw2bWk4cnJ5SzZ4U2VpRWlyclNmdUtUTmVLZmZVVG9rZGNFQU93QlE1OHVlX10tLT48L2c+PC9zdmc+;" vertex="1" parent="1">
            <mxGeometry x="337" y="1508" width="779" height="847" as="geometry" />
          </mxCell>
        </UserObject>
      </root>
    </mxGraphModel>
  </diagram>
</mxfile>
